<?xml version="1.0" encoding="utf-8"?>
<!-- Generator: Adobe Illustrator 16.0.4, SVG Export Plug-In . SVG Version: 6.00 Build 0)  -->
<!DOCTYPE svg PUBLIC "-//W3C//DTD SVG 1.1//EN" "http://www.w3.org/Graphics/SVG/1.1/DTD/svg11.dtd">
<svg version="1.1" id="Layer_1" xmlns="http://www.w3.org/2000/svg" xmlns:xlink="http://www.w3.org/1999/xlink" x="0px" y="0px"
	 width="841.89px" height="595.28px" viewBox="0 0 841.89 595.28" enable-background="new 0 0 841.89 595.28" xml:space="preserve">
<g>
	<path fill="#747373" d="M397.766,285.68c0-0.481,0.394-0.875,0.876-0.875h7.749c0.483,0,0.876,0.393,0.876,0.875v0.924
		c0,0.481,0.002,0.873,0.009,0.873c0.006,0,0.292-0.272,0.642-0.605c0,0,3.021-2.915,7.857-2.714c4.597,0.188,8.85,2.834,8.85,8.756
		v16.833c0,0.481-0.391,0.876-0.873,0.876h-8.098c-0.483,0-0.874-0.395-0.874-0.876v-11.78c0-0.484-0.03-1.27-0.062-1.749
		c0,0-0.287-4.202-3.174-4.202c-1.691,0-3.929,0.848-3.929,4.977v12.755c0,0.481-0.393,0.876-0.876,0.876h-8.098
		c-0.483,0-0.876-0.395-0.876-0.876V285.68z"/>
</g>
<path fill="#747373" d="M456.223,300.822c0.206-1.345-0.408-1.41-0.959-1.41h-7.359c-0.549,0-0.993,0.363-0.993,0.914
	c-0.198,2.037-1.694,3.778-3.833,3.778c-3.777,0-4.326-3.233-4.326-6.366c0-3.135,0.549-6.419,4.326-6.419
	c1.047,0,1.893,0.3,2.49,0.849c0.645,0.546,0.994,1.392,1.094,2.436c0.043,0.581,0.434,0.867,0.984,0.867h7.357
	c0.551,0,1.092-0.177,0.94-1.38l0,0l0,0c-0.83-6.753-6.466-9.933-13.062-9.933c-7.762,0-13.982,5.422-13.982,13.581
	c0,8.156,6.221,13.53,13.982,13.53C449.676,311.269,455.085,307.518,456.223,300.822L456.223,300.822L456.223,300.822z"/>
<g>
	<path fill="#747373" d="M462.033,291.749c0-0.48-0.393-0.874-0.875-0.874h-2.281c-0.48,0-0.876-0.395-0.876-0.877v-4.317
		c0-0.481,0.396-0.875,0.876-0.875h2.281c0.482,0,0.887-0.395,0.898-0.875c0,0,0.126-4.498,2.016-6.389
		c2.137-2.139,4.521-2.971,8.503-3.087c4.517-0.132,4.514-0.145,4.533,1.25v3.748c0,0.482-0.39,0.94-0.863,1.017
		c0,0-0.732,0.119-1.526,0.119c-2.387,0-3.184,1.829-3.034,4.217h4.297c0.482,0,0.878,0.393,0.878,0.875v4.317
		c0,0.482-0.396,0.877-0.878,0.877h-3.223c-0.48,0-0.877,0.393-0.877,0.874v17.999c0,0.481-0.391,0.876-0.874,0.876h-8.1
		c-0.48,0-0.875-0.395-0.875-0.876V291.749z"/>
</g>
<circle fill="#009FE3" cx="386.92" cy="277.234" r="4.925"/>
<g>
	<path fill="#747373" d="M392.045,322.936c0,0.481-0.392,0.876-0.875,0.876h-8.1c-0.48,0-0.874-0.395-0.874-0.876v-8.1
		c0-0.48,0.394-0.875,0.874-0.875h8.1c0.483,0,0.875,0.395,0.875,0.875V322.936z"/>
</g>
<g>
	<path fill="#747373" d="M383.387,284.789c-0.483,0-0.875,0-0.875,0s-0.394-0.001-0.876-0.001h-4.195
		c-0.483,0-0.874,0.394-0.874,0.875v8.097c0,0.482,0.391,0.875,0.874,0.875h4.075c0.482,0,0.876,0.395,0.876,0.876v14.218
		c0,0.481,0.393,0.876,0.876,0.876h8.098c0.483,0,0.876-0.395,0.876-0.876v-24.065c0-0.482-0.394-0.875-0.876-0.875H383.387z"/>
</g>
<g>
	<path fill="#747373" d="M373.588,284.729c0-0.481-0.336-0.664-0.74-0.406l-7.762,4.939c-0.406,0.26-0.406,0.682,0,0.94l7.762,4.937
		c0.404,0.259,0.74,0.076,0.74-0.404V284.729z"/>
</g>
</svg>
