<svg id="Layer_1" data-name="Layer 1" xmlns="http://www.w3.org/2000/svg" xmlns:xlink="http://www.w3.org/1999/xlink" viewBox="0 0 868.39 335"><defs><style>.cls-1{fill:none;}.cls-2{font-size:45px;font-family:Rubik-Regular, Rubik;}.cls-2,.cls-8{fill:#003594;}.cls-3{letter-spacing:0em;}.cls-4{letter-spacing:-0.01em;}.cls-5{letter-spacing:0em;}.cls-6{letter-spacing:-0.01em;}.cls-7{letter-spacing:-0.01em;}.cls-9{fill:#fff;}.cls-10{fill:#003595;}.cls-11{clip-path:url(#clip-path);}.cls-12{fill:#ffb71b;}</style><clipPath id="clip-path"><rect class="cls-1" y="9.67" width="360" height="111.17"/></clipPath></defs><text class="cls-2" transform="translate(432.49 63.5)">Comput<tspan class="cls-3" x="167.31" y="0">a</tspan><tspan x="191.92" y="0">tional </tspan><tspan class="cls-4" x="0" y="54">R</tspan><tspan class="cls-5" x="29.21" y="54">esea</tspan><tspan class="cls-6" x="127.4" y="54">r</tspan><tspan x="144.04" y="54">ch </tspan><tspan class="cls-7" x="207.31" y="54">F</tspan><tspan x="233.1" y="54">orum</tspan></text><rect class="cls-8" x="399.81" width="4.49" height="148.53"/><path class="cls-9" d="M66.22,51.21a6.51,6.51,0,1,1,6.5-6.51,6.52,6.52,0,0,1-6.5,6.51ZM22,51.21a6.51,6.51,0,1,1,6.51-6.51A6.52,6.52,0,0,1,22,51.21ZM47.51,33.77V28.72a3.42,3.42,0,0,0-6.83,0v5.05H4.24V55.56H84V33.77ZM44.17,106a6.51,6.51,0,1,1,6.5-6.5,6.51,6.51,0,0,1-6.5,6.5ZM11.29,88.6a56.23,56.23,0,0,0,13.07,16.27,61.37,61.37,0,0,0,19.75,11.45,61.37,61.37,0,0,0,19.74-11.44A56.47,56.47,0,0,0,76.93,88.6Z"/><path class="cls-10" d="M109.53,31.58c3,0,3.24.14,3.26,1.85l0,.9c0,1.08,0,2,0,3.94v7.88c0,1.55.49,9.3,10.23,9.3a10.21,10.21,0,0,0,6.8-2.33c2.36-2.12,3.51-5.47,3.51-10.24V35.13c0-1.93.13-2.75.53-3.14s1.27-.42,2.68-.41H137c.37,0,.66-.39.66-.91s-.25-.94-.83-.94l-1.5.05c-.93,0-2.33.09-3,.09-1.47,0-3-.06-3.94-.1h-.13l-1,0c-.29,0-.63.15-.63.87,0,.29,0,1,.63,1h.24c1.6,0,2.58,0,3.12.5s.73,1.56.73,3.82v6.81c0,6.78-2.31,10.08-7,10.08-6.41,0-7.36-5.2-7.36-8.29V38.27c0-1.93,0-2.86,0-3.94l0-.9c0-1.71.27-1.85,3.26-1.85.73,0,.73-.76.73-1,0-.55-.33-.8-.66-.8h-.72c-1.09,0-3.13.12-4.75.12s-3.6-.07-4.71-.11h-.28l-.45,0c-.33,0-.66.25-.66.8,0,.29,0,1,.73,1Z"/><path class="cls-10" d="M135.36,40.82a.67.67,0,0,0,.63.76c1.47.15,1.71.63,1.71,1.71V48a37.07,37.07,0,0,1-.18,4.82c-.15.34-.18.61-1.4.61s-1.34,0-1.34.87c0,.6.34.72.62.72H136c.65,0,1.75-.05,4-.05,1.9,0,2.56,0,2.84.06h.18c.46,0,.7-.26.7-.79,0-.8-.37-.8-1.21-.8-1.14,0-1.37,0-1.37-2V42.88a.43.43,0,0,1,.15-.34,5.38,5.38,0,0,1,2.8-1.17c3.27,0,3.5,1.89,3.5,5v6.16c0,.81-.18.92-1.79.92-.57,0-.65.42-.65.83,0,.73.49.76.59.76h.29c.39,0,1.2-.05,3.32-.05,1,0,3,.06,3.48.06s.83-.26.83-.79c0-.22,0-.8-.69-.8-1.89,0-1.89-.47-1.89-.89V44.29c0-3.55-1.73-5.51-4.89-5.51a8.39,8.39,0,0,0-4.34,1.61.66.66,0,0,1-.56.08c-.15-.08-.13-.32-.13-.49s0-.47,0-.64,0-.25,0-.31,0-.73-.46-.73a1.18,1.18,0,0,0-.62.25A12.74,12.74,0,0,1,135.92,40c-.35.07-.56.13-.56.83Z"/><path class="cls-10" d="M155.41,55H156c.65,0,1.73-.05,4-.05,1.76,0,2.4,0,2.67.06h.19c.46,0,.69-.26.69-.79,0-.8-.51-.8-1.17-.8-1.14,0-1.23,0-1.23-2V44a45.49,45.49,0,0,1,.15-4.81c0-.07.18-.87-.54-.87a1.27,1.27,0,0,0-.63.24A12.2,12.2,0,0,1,155.91,40a.76.76,0,0,0-.56.83.67.67,0,0,0,.62.76c1.48.15,1.72.38,1.72,1.47v5a37.07,37.07,0,0,1-.18,4.82c-.15.34-.37.61-1.14.61-1.1,0-1.58,0-1.58.87,0,.6.34.72.62.72Z"/><path class="cls-10" d="M159.42,34.22A2.18,2.18,0,1,0,157.28,32a2.19,2.19,0,0,0,2.14,2.18Z"/><path class="cls-10" d="M164.32,41.09c.07,0,.78-.05,1,.32s1.05,2.74,1.84,4.88c.94,2.54,2.86,7.27,3,7.49.51,1.15.75,1.67,1.29,1.67s.9-.45,2-3c.21-.48,3-6.76,3.81-8.7,1.23-2.91.92-2.62,2.8-2.71H180a.71.71,0,0,0,.7-.82c0-.43-.16-.87-.59-.87s-1.08,0-1.57,0h0l-1.5,0c-.47,0-1,0-1.46,0h-.07c-.48,0-1.16,0-1.62,0s-.61.5-.61.87c0,.57.25.76.58.76,1.76,0,2,.11,2,.54,0,.77-.45,2-3,7.7-.08.17-.22.44-.41.44s-.35-.28-.42-.45c-1.33-3.19-2.76-7.12-2.76-7.84,0-.08-.08-.35.28-.37s.83,0,1.29,0H171c.4,0,.56-.42.56-.78,0-.56-.23-.87-.6-.87l-4.1.06-3.28-.06c-.68,0-.68.68-.68,1,0,.68.55.74,1.38.74Z"/><path class="cls-10" d="M183.91,43.39c.52-2.09,1.64-3.15,3.32-3.15.8,0,2.68.28,2.68,2.92,0,.67-.25.78-.82.78h-4.74a.56.56,0,0,1-.42-.13.55.55,0,0,1,0-.42Zm3.94,12.06a6.56,6.56,0,0,0,6.27-4.72,1,1,0,0,0-.9-.77c-.32,0-.5.28-.67.55l-.13.19a4.19,4.19,0,0,1-3.75,1.91,5.4,5.4,0,0,1-5.29-5.32c0-.44,0-.84.05-1.21s.1-.4.34-.4H193a.66.66,0,0,0,.76-.73,6.09,6.09,0,0,0-6.51-6.31c-3.56,0-7.23,3.22-7.23,8.61,0,5.21,2.86,8.2,7.85,8.2Z"/><path class="cls-10" d="M195.36,55h.82c.58,0,1.44-.05,3.26-.05.86,0,1.57,0,2.19,0s1.29,0,1.86,0c.42,0,.74-.06.74-.83s-.38-.76-1.76-.76-1.37-.39-1.37-1.68V44a1.77,1.77,0,0,1,.15-.87,3.06,3.06,0,0,1,2.11-1.26c.34,0,.56.2.86.48a2.45,2.45,0,0,0,1.79.83,2,2,0,0,0,2-2.07,2.3,2.3,0,0,0-2.56-2.28,5.88,5.88,0,0,0-3.64,1.69c-.14.13-.44.27-.61.19s-.15-.38-.13-.56,0-.33,0-.47v-.05c0-.27,0-.44,0-.59s-.13-.69-.49-.69a1.27,1.27,0,0,0-.63.24A12.2,12.2,0,0,1,195.83,40c-.52.11-.56.38-.56.83a.67.67,0,0,0,.62.76c1.48.15,1.72.63,1.72,1.71V52c0,1.29-.12,1.41-1.41,1.41-.85,0-1.41,0-1.41.8,0,.58.25.79.57.79Z"/><path class="cls-10" d="M209.57,54.49c0,.26.1.62.46.72a6.8,6.8,0,0,0,1.35,0c.64,0,2.35.23,3,.23,5.17,0,5.68-3.85,5.68-5,0-3.28-1.74-4-4.14-4.91h0c-.64-.26-1.37-.54-2.15-.91a2.31,2.31,0,0,1-1.42-2,2.13,2.13,0,0,1,2.4-2.23c1.43,0,2.52.89,3.24,2.65l.06.15c.25.65.61.6,1,.6.61,0,.73-.25.73-.62a4.39,4.39,0,0,0-.12-.81,13.45,13.45,0,0,1-.26-2c0-.74-.09-1.17-.78-1.3a30.48,30.48,0,0,0-3.81-.32c-3.23,0-5.57,2.12-5.57,5s2.5,3.85,4.51,4.64c1.71.68,3.19,1.26,3.19,2.69a2.57,2.57,0,0,1-2.78,2.71,3.66,3.66,0,0,1-3.35-2.37c-.32-.61-.5-1.1-1-1.1-.65,0-1,.09-1,.46a22.83,22.83,0,0,0,.5,2.38c.14.63.24,1,.29,1.27Z"/><path class="cls-10" d="M222,55h.6c.66,0,1.75-.05,4-.05,1.76,0,2.4,0,2.67.06h.19c.46,0,.69-.26.69-.79,0-.8-.52-.8-1.17-.8-1.14,0-1.24,0-1.24-2V44a44.43,44.43,0,0,1,.16-4.81c0-.07,0-.11,0-.14,0-.51-.28-.73-.56-.73a1.24,1.24,0,0,0-.63.24A12.2,12.2,0,0,1,222.53,40a.76.76,0,0,0-.56.83.67.67,0,0,0,.62.76c1.48.15,1.72.38,1.72,1.47v5a37.07,37.07,0,0,1-.18,4.82c-.15.34-.32.61-1.09.61-1.1,0-1.66,0-1.66.87,0,.6.34.72.63.72Z"/><path class="cls-10" d="M226,34.22A2.18,2.18,0,1,0,223.89,32,2.19,2.19,0,0,0,226,34.22Z"/><path class="cls-10" d="M230.42,41.48a.6.6,0,0,0,.34.07h1.7a.2.2,0,0,1,0,.09v9.18c0,3,1.53,4.62,4.31,4.62,3.18,0,4.92-1.64,4.92-2.18,0-.34-.34-.9-.72-.9a1,1,0,0,0-.44.17,4,4,0,0,1-1.9.62c-2.26,0-2.68-.73-2.68-4.6V41.9a.5.5,0,0,1,.08-.36c.08-.09.25-.09.37-.09h0c1.66,0,2.09.06,2.41.08h.27c.75,0,1.28,0,1.28-1s-.39-1.18-.65-1.18c-.69,0-1.29,0-1.7,0H238c-.43,0-.59,0-1.52.06h0a.58.58,0,0,1-.39-.09c-.08-.08-.06-.26-.06-.38,0-1.22.07-2,.07-2.26a.75.75,0,0,0-.76-.8c-.46,0-.78.37-1.36,1.06a19.7,19.7,0,0,1-3.4,3.25.78.78,0,0,0-.34.75.49.49,0,0,0,.22.46Z"/><path class="cls-10" d="M242.25,41.1c1.07,0,1.79.07,2,.56.27.66.49,1.44.78,2.42.56,1.82,1.32,4.31,2.73,7.94l.1.27a15,15,0,0,1,1.08,3.46A9.11,9.11,0,0,1,247,60.32a1.58,1.58,0,0,1-.36-.17,2.56,2.56,0,0,0-1.34-.41,2.29,2.29,0,1,0-.07,4.58c1.37,0,2.54-.52,5.25-7.31.41-1,2-4.47,3.56-7.79l.06-.13c1.18-2.52,2.57-5.47,3.15-6.8.43-1,.67-1.13,1.87-1.13.6,0,.88-.28.88-.85a1,1,0,0,0-.2-.75.73.73,0,0,0-.52-.19c-.55,0-1.08,0-1.55,0-1,0-2.12,0-3.18,0-.52,0-1.19,0-1.75,0-.37,0-.59.35-.59.79,0,1,.54,1,.71,1h.31c.63,0,1.53,0,1.85.27a.49.49,0,0,1,.13.37c0,.44-.65,2.39-3.61,8.57a.44.44,0,0,1-.42.26.46.46,0,0,1-.41-.29c-1.6-4.2-2.67-7.31-2.67-8.82,0-.23.08-.41,1.33-.41.46,0,.66-.48.66-.93a.7.7,0,0,0-.76-.79l-1.61,0c-.58,0-1.19,0-1.8,0-.77,0-1.79,0-2.57,0h-1.08c-.36,0-.59.26-.59.76s.09,1,.55,1Z"/><path class="cls-10" d="M283.64,41.58h1.65c.31,0,.55.07.55.52V52.59c0,.42-.22.82-.92.82-1.11,0-1.22,0-1.39.19a1,1,0,0,0-.17.64c0,.58.21.79.66.79h.33c.41,0,1.26-.05,3.32-.05.81,0,1.47,0,2.19,0,.56,0,1.22,0,1.82,0,.42,0,.78-.06.78-.83s-.39-.76-1.49-.76c-1.77,0-1.64-.39-1.64-1.68V42.05a.46.46,0,0,1,.13-.32.42.42,0,0,1,.33-.13l1.83.1h.05c.57,0,1.16.1,1.25.1.8,0,1-.4,1-1.16s-.3-1.07-.73-1.07h-3.43a.45.45,0,0,1-.45-.45V35.48c0-2.11.34-4.63,1.95-4.63.53,0,.7.22,1.29.71a3.41,3.41,0,0,0,2.12.87,1.9,1.9,0,0,0,2-2c0-1.26-1.27-1.83-2.52-1.83a10.92,10.92,0,0,0-2.19.29c-4,1.06-5.84,3.81-6.21,9.5-.09,1.28-.2,1.17-1.51,1.5-.9.23-1.35.28-1.35.93s.29.78.76.8Z"/><path class="cls-10" d="M136,75.29c0,6.13-4.26,10.08-10.84,10.08-3,0-3-.87-3-1.88V69.84c0-2.14.07-3.4.6-4s1.78-.56,4-.56c5.45,0,9.26,4.09,9.26,10Zm4.46-7.39c-2.72-3.33-7.17-5-13.25-5-2.18,0-5.27.12-7,.18l-1.37,0c-2.73,0-5.7-.13-7.3-.19h-.08l-1,0c-.53,0-.87.43-.87,1.1,0,.51,0,1.35,1,1.35,4,0,4.87.3,4.92,3.58l0,1.39c0,1.94.08,3.48.08,6.87V91.52c0,2.44,0,6.07-.17,9.07,0,1.26-.09,2.42-4.7,2.42-1.71,0-2,.39-2,1.34,0,.52.13,1.11.81,1.11,1.29,0,2.17-.12,9.26-.12,5.26,0,9.18.12,10.61.12.81,0,.92-.7.92-1.22,0-1.06-.5-1.23-2.37-1.23-5.7,0-5.67-1.14-5.77-3.2v-.34c-.06-1.65-.11-3.36-.12-11.63a.46.46,0,0,1,.16-.34.43.43,0,0,1,.36-.1,39.12,39.12,0,0,0,6.23.42c4.13,0,7.62-1.13,10.1-3.27s4-5.63,4-9.73a11.51,11.51,0,0,0-2.56-6.92Z"/><path class="cls-10" d="M155.93,103.24c-2.17,0-2.35-.27-2.35-3.69V86.89a70.54,70.54,0,0,1,.28-8.23c0-.1,0-.16,0-.2,0-.69-.35-1-.7-1a1.88,1.88,0,0,0-.94.39c-.85.5-2.61,1.54-7.33,2.49a1.05,1.05,0,0,0-.75,1.16.9.9,0,0,0,.84,1c2.69.27,3.15,1.2,3.15,3.17v8a61.11,61.11,0,0,1-.33,8.3c-.33.77-.76,1.19-2.08,1.19-2.12,0-2.57.11-2.57,1.23,0,.27,0,1,.81,1l1,0c1.1,0,3-.1,6.91-.1,3,0,4.08.07,4.55.1a2.09,2.09,0,0,0,.31,0c.93,0,.93-.81.93-1.11,0-1.06-.5-1.11-1.75-1.11Z"/><path class="cls-10" d="M150.83,63.11a3.45,3.45,0,1,0,3.4,3.45,3.48,3.48,0,0,0-3.4-3.45Z"/><path class="cls-10" d="M175.8,101.43a1.43,1.43,0,0,0-.62.26,7.18,7.18,0,0,1-3.36,1.09c-4.42,0-4.81-2.1-4.81-8.1V83.18a.48.48,0,0,1,.13-.32.5.5,0,0,1,.32-.13c3.27,0,5.06.18,5.82.25l.55,0c1.47,0,1.93-.66,1.93-1.81,0-.39,0-1.58-.93-1.58h-7.37a.48.48,0,0,1-.32-.13.49.49,0,0,1-.13-.33c0-1.62.08-2.6.12-3.34,0-.48.06-.85.06-1.24a1,1,0,0,0-1.06-1.11c-.66,0-1.21.65-2.12,1.71a33,33,0,0,1-5.82,5.57,1.15,1.15,0,0,0-.49,1.09c0,.58.36.88.7.88h2.79c.29,0,.38.08.38.33V98.55c0,6.29,3.85,7.61,7.09,7.61,5.42,0,8.13-2.79,8.13-3.45,0-.47-.49-1.28-1-1.28Z"/><path class="cls-10" d="M195.58,101.43a1.35,1.35,0,0,0-.62.26,7.22,7.22,0,0,1-3.36,1.09c-4.42,0-4.81-2.1-4.81-8.1V83.18a.44.44,0,0,1,.13-.32.5.5,0,0,1,.32-.13c3.26,0,5,.18,5.82.25l.55,0c1.46,0,1.93-.66,1.93-1.81,0-.39,0-1.58-.94-1.58h-7.36a.48.48,0,0,1-.32-.13.44.44,0,0,1-.13-.33c0-1.62.08-2.6.12-3.34,0-.48.05-.85.05-1.24a1,1,0,0,0-1.05-1.11c-.67,0-1.21.65-2.12,1.71A33,33,0,0,1,178,80.76a1.15,1.15,0,0,0-.49,1.09c0,.58.35.88.7.88H181c.29,0,.38.08.38.33V98.55c0,6.29,3.85,7.61,7.08,7.61,5.43,0,8.14-2.79,8.14-3.45,0-.47-.49-1.28-1-1.28Z"/><path class="cls-10" d="M209.83,89.72s-2.36-.93-3.68-1.56a4.15,4.15,0,0,1-2.57-3.61c0-2.5,1.67-4,4.35-4,2.53,0,4.46,1.58,5.74,4.68l0,.08a1.36,1.36,0,0,0,1.49,1c.59,0,1-.33,1-.81a7.49,7.49,0,0,0-.19-1.33,22.34,22.34,0,0,1-.45-3.36c0-.64-.24-1.77-1.14-2a46.84,46.84,0,0,0-6.42-.54c-5.36,0-9.25,3.5-9.25,8.32s4,6.28,7.53,7.67c2.88,1.13,5.6,2.2,5.6,4.81a4.71,4.71,0,0,1-5,4.87c-3.54,0-4.89-2.53-5.79-4.2-.53-1-.92-1.72-1.59-1.72-.35,0-1.4,0-1.4.7,0,.35,1.28,6,1.35,6.33a.71.71,0,0,0,.63.63c2.41,0,4.77.47,6.74.47,9.19,0,9.9-6.36,9.9-8.31,0-5.42-2.89-6.55-6.88-8.13Z"/><path class="cls-10" d="M240,92.75c0,7.53-2.32,11.2-7.09,11.2-4.1,0-6.1-2.44-6.1-7.45V85.84c0-3.42,2.15-5.46,5.75-5.46,6.15,0,7.44,6.73,7.44,12.37Zm2.12-11.63a12.6,12.6,0,0,0-8.57-3.19,9.62,9.62,0,0,0-6,1.79.45.45,0,0,1-.72-.36V69.84a56.78,56.78,0,0,1,.26-7.49,3.11,3.11,0,0,0,0-.33c0-.74-.37-.85-.7-.85a4.7,4.7,0,0,0-1.34.45,29.17,29.17,0,0,1-6.87,2.08c-.64.1-.74.52-.74,1.16a1,1,0,0,0,.84,1l.12,0c3,.26,3,.26,3,5v30.58c0,.77-.11,2.6-.11,3s0,1.11.81,1.11.93-.45,1.17-.84.55-.88,1.23-.88a7.29,7.29,0,0,1,2.3.75,16.61,16.61,0,0,0,6.61,1.55,12.87,12.87,0,0,0,8.52-3.27c2.85-2.58,4.36-6.36,4.36-11s-1.43-8.34-4.14-10.81Z"/><path class="cls-10" d="M276.45,101.9c-.18,0-1.89.23-2.33.23-1,0-1.12-.72-1.12-1.82v-11c0-3.36.34-6.94.47-8.29,0-.43,0-.55,0-.61a1.06,1.06,0,0,0-1.16-1.17c-.74,0-1.51,0-2.25.09s-1.48.09-2.2.09c-2.39,0-4.05-.18-5-.18-.75,0-.89.51-.89,1.52s1.08.93,2.22.93c2.88,0,3.29.2,3.29,3.17V100c0,1.49-3.35,2.75-5.46,2.75-3.83,0-5.39-1.9-5.39-6.56V80.39c0-.81-.12-1.17-.81-1.17-.32,0-.84,0-1.48.06h0c-1,0-2.31.12-3.58.12a26.07,26.07,0,0,1-2.68-.13c-.31,0-.56,0-.78,0-1.13,0-1,1.07-1,1.52,0,.84,1.15.93,1.64.93,2.72,0,3.28,0,3.28,5.16V96c0,7.15,2.33,10.19,7.79,10.19a16.3,16.3,0,0,0,8.3-2.84c0,.48-.09,1-.09,1.5a1.14,1.14,0,0,0,1.05,1.17c.85,0,3.25-.95,6.79-1.53,1.69-.26,2.22-.38,2.22-1.11,0-.9-.12-1.45-.88-1.45Z"/><path class="cls-10" d="M297.08,78.28c-2.11,0-4.48,1.26-7.05,3.74a.52.52,0,0,1-.55.14.47.47,0,0,1-.21-.48c.05-1,.12-1.75.17-2.31,0-.39.08-.72.08-1s.1-.94-.58-.94a1.94,1.94,0,0,0-.94.39c-.85.5-2.62,1.54-7.33,2.49a1.05,1.05,0,0,0-.75,1.16.9.9,0,0,0,.84,1c2.69.27,3.14,1.19,3.14,3.17V100.6c0,2.32-.32,2.64-2.64,2.64-1.47,0-2.16,0-2.16,1.11s.61,1.11.87,1.11l1.2,0c1,0,2.44-.09,5.6-.09,1.4,0,2.57,0,3.7.06h0c.95,0,1.92,0,2.94,0s1.22-.09,1.22-1.17-.49-1.05-2.75-1.05c-2.58,0-2.58-.91-2.58-3.11V86.83a3.22,3.22,0,0,1,.32-1.64A5.31,5.31,0,0,1,293.45,83a2.4,2.4,0,0,1,1.64.89A3.93,3.93,0,0,0,298,85.19a3.23,3.23,0,0,0,3.22-3.28c0-2.2-1.61-3.63-4.1-3.63Z"/><g class="cls-11"><path class="cls-10" d="M313.26,95.63c-4.29,0-4.93-4.15-4.93-6.63,0-5.76,1.74-8.68,5.17-8.68,4.13,0,4.57,4.72,4.57,6.75,0,3.19-.62,8.56-4.81,8.56Zm-8.2,16.77c0-2.89,3-5.18,3-5.18h8.65c4.15,0,5.85.87,5.85,4,0,3.76-2.91,6.27-9.43,6.27-7.51,0-8.09-3.86-8.09-5ZM324.6,82.75c.56.85,1.26,1.91,2.55,1.91a2.53,2.53,0,0,0,2.57-2.4c0-1.09-.47-3.62-4.74-3.62a7.16,7.16,0,0,0-4.38,1.48.44.44,0,0,1-.51,0,12.83,12.83,0,0,0-6.83-2,11.29,11.29,0,0,0-7.39,2.83,9.47,9.47,0,0,0-3.32,7.12c0,3.7,1.21,6.31,3.7,8,.12.09.26.21.26.36a.51.51,0,0,1-.24.38c-2.26,1.68-3.67,3.33-3.67,6.44a3.9,3.9,0,0,0,2.49,3.45c.14.06.33.17.34.32a.56.56,0,0,1-.19.41c-2.19,2.2-4.22,4.35-4.22,7.56,0,3.94,2.59,5.86,7.91,5.86a25.48,25.48,0,0,0,11.3-2.44c4-2.08,6-5.18,6-9.33a7.35,7.35,0,0,0-1.05-3.93c-1.36-1.91-3.73-3-7.26-3h-8.67c-1.73,0-2.41-.45-2.41-1.59a3.78,3.78,0,0,1,1.8-3.17.83.83,0,0,1,.64-.1,14,14,0,0,0,3.84.51c6.74,0,10.77-3.89,10.77-10.42a11.65,11.65,0,0,0-2.05-5.6,1.37,1.37,0,0,1,1.26-.6c.81,0,1.08.86,1.53,1.53Z"/><path class="cls-10" d="M359.07,103.24c-3.46,0-3.46-1-3.46-1.76V87.42c0-5.89-2.87-9.14-8.08-9.14a14.67,14.67,0,0,0-8.16,2.77.45.45,0,0,1-.46,0,.43.43,0,0,1-.24-.39V69.84c0-4.27.24-7,.29-7.81s-.18-1.05-.69-1.05a4.52,4.52,0,0,0-1.34.46,28,28,0,0,1-6.87,2.07c-.75.11-.75.53-.75,1.16a1,1,0,0,0,.84,1c3,.27,3.09.28,3.09,5.18V91.4c0,3.67-.15,10.17-.33,10.65a1.7,1.7,0,0,1-1.79,1.19c-2.11,0-2.57.11-2.57,1.23,0,.27,0,1,.81,1l.68,0c.91,0,2.81-.1,6.94-.1,3.22,0,4.37.07,4.86.11h.3c.93,0,.93-.81.93-1.11,0-1.11-.42-1.11-2.05-1.11-2.17,0-2.35-.27-2.35-3.69V84c.43-.72,2.85-1.79,5.28-1.79,5.8,0,6.22,3.3,6.22,8.73v10.49c0,1.6-.2,1.82-3.18,1.82-.86,0-1,.63-1,1.17,0,1,.58,1,.76,1l.5,0c.67,0,2.09-.1,5.65-.1,1.77,0,2.85,0,3.81.07h.08c.7,0,1.41,0,2.14,0,1.05,0,1.05-.69,1.05-1,0-.56-.07-1.17-.93-1.17Z"/></g><path class="cls-10" d="M278.89,47.12c0,5.56-2.39,6.72-4.39,6.72-3.6,0-4.35-3.66-4.35-6.72,0-6.25,3.33-6.73,4.35-6.73,4.07,0,4.39,5.15,4.39,6.73Zm-4.39-8.35a8.17,8.17,0,0,0-8.35,8.35,8.07,8.07,0,0,0,8.35,8.34c5,0,8.38-3.35,8.38-8.34a8.09,8.09,0,0,0-8.38-8.35Z"/><g class="cls-11"><path class="cls-12" d="M77.68,87.14A64.13,64.13,0,0,0,84,58.37V55.56H4.24v2.81a64.11,64.11,0,0,0,6.29,28.76c.24.5.5,1,.76,1.47H76.93c.26-.48.51-1,.75-1.46Z"/><path class="cls-10" d="M66.22,38.2a6.51,6.51,0,1,0,6.5,6.5,6.51,6.51,0,0,0-6.5-6.5ZM22,38.2a6.51,6.51,0,1,0,6.51,6.5A6.51,6.51,0,0,0,22,38.2ZM44.17,93a6.51,6.51,0,1,0,6.5,6.51A6.52,6.52,0,0,0,44.17,93ZM39.8,59.07H31.13v8.67H39.8V59.07Zm0,17.35H31.1V85.1h8.67V76.42Zm17.39,0H48.48V85.1h8.68V76.42Zm8.68-8.68H57.16v8.68h8.68V67.74Zm-17.36,0H39.8v8.68h8.68V67.74Zm8.68-8.67H48.48v8.67h8.68V59.07Zm17.35,0H65.84v8.67h8.67V59.07Zm0,17.35H65.84V85.1h8.67V76.42ZM22.42,59.07H13.74v8.67h8.68V59.07Zm8.68,8.67H22.42v8.68H31.1V67.74Zm-8.68,8.68H13.74V85.1h8.68V76.42ZM76.93,88.6c.26-.48.51-1,.75-1.46A64.13,64.13,0,0,0,84,58.37V33.77H47.51V28.72a3.42,3.42,0,0,0-6.83,0v5.05H4.24v24.6a64.11,64.11,0,0,0,6.29,28.76c.24.5.5,1,.76,1.47a56.23,56.23,0,0,0,13.07,16.27,61.37,61.37,0,0,0,19.75,11.45,61.37,61.37,0,0,0,19.74-11.44A56.47,56.47,0,0,0,76.93,88.6Zm11.28-59V58.37a68.4,68.4,0,0,1-6.78,30.76,60.46,60.46,0,0,1-15,19.08,63.22,63.22,0,0,1-21.8,12.37l-.58.16-.57-.16a63.26,63.26,0,0,1-21.8-12.38A60.68,60.68,0,0,1,6.78,89.12,68.39,68.39,0,0,1,0,58.37V29.62H19.37v-.54c0-2.17,1.71-3.16,1.88-4.23h10c.19,1,1.89,2,1.89,4.23v.54h2.09v-.56c0-3.42-2.09-3.89-2.09-6V20.85H36v1.68h1.87V20.85h2.92v1.68h1.81V20.85h2.91v1.68h1.81V20.85h2.92v1.68h1.88V20.85h2.91V23c0,2.16-2.09,2.63-2.09,6v.56h2.11v-.54c0-2.17,1.7-3.16,1.87-4.23H67c.19,1,1.89,2,1.89,4.23v.54ZM67,19.33c0-1.27,1.89-1.81,1.89-4.06V13.62H65.93v1.65H63.42V13.62H60.51v1.65H58V13.62h-2.9v1.65c0,2.17,1.87,2.79,1.87,4.06ZM57,23.25H67v-2.4H57v2.4ZM31.23,19.33c0-1.27,1.89-1.81,1.89-4.06V13.62h-2.9v1.65H27.7V13.62H24.79v1.65H22.28V13.62H19.37v1.65c0,2.17,1.88,2.79,1.88,4.06Zm-10,3.92h10v-2.4h-10v2.4Zm28-7.88c0-1.27,1.88-1.8,1.88-4V9.67H48.17v1.65H45.65V9.67H42.74v1.65H40.23V9.67H37.32v1.65c0,2.16,1.88,2.78,1.88,4Zm-10,1.55h10v2.41h-10V16.92Z"/></g></svg>