<svg id="Layer_1" data-name="Layer 1" xmlns="http://www.w3.org/2000/svg" xmlns:xlink="http://www.w3.org/1999/xlink" viewBox="0 0 514 125.71"><defs><style>.cls-1{fill:#8f2d48;}.cls-2{fill:#5c8c3e;}.cls-3{fill:none;}.cls-4{fill:url(#linear-gradient);}.cls-5{fill:url(#linear-gradient-2);}.cls-6{fill:url(#linear-gradient-3);}.cls-7{fill:url(#linear-gradient-4);}.cls-8{fill:url(#linear-gradient-5);}.cls-9{fill:url(#linear-gradient-6);}.cls-10{fill:url(#linear-gradient-7);}.cls-11{fill:url(#linear-gradient-8);}.cls-12{fill:#231f20;}</style><linearGradient id="linear-gradient" x1="170.84" y1="167.19" x2="153.05" y2="-123.95" gradientUnits="userSpaceOnUse"><stop offset="0" stop-color="#fff"/><stop offset="0.51" stop-color="#fff" stop-opacity="0"/></linearGradient><linearGradient id="linear-gradient-2" x1="213.15" y1="164.61" x2="195.35" y2="-126.53" xlink:href="#linear-gradient"/><linearGradient id="linear-gradient-3" x1="257.45" y1="161.9" x2="239.65" y2="-129.25" xlink:href="#linear-gradient"/><linearGradient id="linear-gradient-4" x1="313.29" y1="158.49" x2="295.49" y2="-132.66" xlink:href="#linear-gradient"/><linearGradient id="linear-gradient-5" x1="352.18" y1="156.11" x2="334.39" y2="-135.04" xlink:href="#linear-gradient"/><linearGradient id="linear-gradient-6" x1="399" y1="153.25" x2="381.21" y2="-137.9" xlink:href="#linear-gradient"/><linearGradient id="linear-gradient-7" x1="452.61" y1="149.97" x2="434.81" y2="-141.17" xlink:href="#linear-gradient"/><linearGradient id="linear-gradient-8" x1="488.27" y1="147.79" x2="470.48" y2="-143.35" xlink:href="#linear-gradient"/></defs><path class="cls-1" d="M142.1,86.79V13h11.61q10.09,0,14.77,1.31A19.75,19.75,0,0,1,179,20.79,17.18,17.18,0,0,1,183,32a16.38,16.38,0,0,1-1.78,7.66,19.52,19.52,0,0,1-5.8,6.45c4.49,2.1,7.76,4.74,9.84,7.9a20,20,0,0,1,3.11,11.22A20.83,20.83,0,0,1,185.1,76.6a20.48,20.48,0,0,1-8.29,7.65q-5.07,2.53-14,2.54Zm14.05-60.43V41.92h3.07c3.43,0,6-.72,7.64-2.16a7.36,7.36,0,0,0,2.49-5.87A6.85,6.85,0,0,0,167,28.4q-2.37-2-7.2-2Zm0,28.11V73.39h3.52q8.76,0,11.8-2.21a7.45,7.45,0,0,0,3.05-6.42A9,9,0,0,0,171,57.23q-3.58-2.76-11.88-2.76Z"/><path class="cls-1" d="M198.71,32.18h13.7V86.79h-13.7Z"/><path class="cls-1" d="M250.5,30.78A29,29,0,0,1,265,34.64a28.37,28.37,0,0,1,14.43,24.8,28.66,28.66,0,0,1-3.84,14.45A27.71,27.71,0,0,1,265.16,84.4a28.89,28.89,0,0,1-14.61,3.79,27.24,27.24,0,0,1-20.05-8.35,27.71,27.71,0,0,1-8.3-20.3,27.59,27.59,0,0,1,9.38-21.33A27.42,27.42,0,0,1,250.5,30.78Zm.23,12.9a14.13,14.13,0,0,0-10.64,4.44,15.78,15.78,0,0,0-4.24,11.37q0,7.12,4.19,11.54a15.05,15.05,0,0,0,21.34,0,16,16,0,0,0,4.28-11.49,15.84,15.84,0,0,0-4.2-11.42A14.19,14.19,0,0,0,250.73,43.68Z"/><path class="cls-2" d="M324.07,39.81l-8.48,8.48q-5.16-5.11-9.38-5.12a5.94,5.94,0,0,0-3.62,1,2.92,2.92,0,0,0-.47,4.47,15.3,15.3,0,0,0,4.09,2.53l5,2.51q7.93,3.92,10.9,8a16.62,16.62,0,0,1-2.39,21.68q-5.34,4.88-14.33,4.87a22.78,22.78,0,0,1-19.07-9.33l8.43-9.19a19.54,19.54,0,0,0,5.65,4.55A12.54,12.54,0,0,0,306.16,76a6.84,6.84,0,0,0,4.36-1.31,3.77,3.77,0,0,0,1.66-3q0-3.16-6-6.17l-4.62-2.31q-13.24-6.67-13.25-16.71a14.49,14.49,0,0,1,5-11.07q5-4.59,12.78-4.59a22.12,22.12,0,0,1,18,9Z"/><path class="cls-2" d="M337.52,12.06h13.7V32.18h8.13V44h-8.13V86.79h-13.7V44h-7V32.18h7Z"/><path class="cls-2" d="M407,32.18h13.7V86.79H407V81a26.85,26.85,0,0,1-8.05,5.49,22.5,22.5,0,0,1-8.74,1.68q-10.57,0-18.3-8.2t-7.72-20.4q0-12.66,7.47-20.73a23.79,23.79,0,0,1,18.15-8.08A23,23,0,0,1,399,32.64a25,25,0,0,1,8,5.57Zm-14.4,11.25A13.84,13.84,0,0,0,382,47.92a16.18,16.18,0,0,0-4.2,11.52,16.38,16.38,0,0,0,4.28,11.64,13.87,13.87,0,0,0,10.53,4.57,14.09,14.09,0,0,0,10.7-4.5q4.25-4.49,4.25-11.76c0-4.76-1.42-8.6-4.25-11.55A14.29,14.29,0,0,0,392.58,43.43Z"/><path class="cls-2" d="M431.32,32.18h11.74v6.88a14.75,14.75,0,0,1,5.07-6.17,12.21,12.21,0,0,1,6.93-2.11,12.91,12.91,0,0,1,5.57,1.4L456.36,44a9.29,9.29,0,0,0-4-1.21q-3.16,0-5.35,3.92T444.87,62l.05,2.67V86.79h-13.6Z"/><path class="cls-2" d="M500.83,39.81l-8.48,8.48q-5.18-5.11-9.39-5.12a5.91,5.91,0,0,0-3.61,1A3,3,0,0,0,478,46.59a3,3,0,0,0,.83,2A15.48,15.48,0,0,0,483,51.15l5,2.51q7.93,3.92,10.89,8a16.63,16.63,0,0,1-2.38,21.68q-5.36,4.88-14.33,4.87a22.78,22.78,0,0,1-19.07-9.33l8.43-9.19a19.54,19.54,0,0,0,5.65,4.55A12.54,12.54,0,0,0,482.91,76a6.87,6.87,0,0,0,4.37-1.31,3.78,3.78,0,0,0,1.65-3q0-3.16-6-6.17l-4.61-2.31q-13.26-6.67-13.25-16.71a14.49,14.49,0,0,1,5-11.07,18.14,18.14,0,0,1,12.77-4.59,22.12,22.12,0,0,1,18,9Z"/><path class="cls-3" d="M126.33,30.82C109.59,21.33,320.72,122,590.56,17.16"/><path class="cls-4" d="M181.17,39A16.41,16.41,0,0,0,183,31.32,17.18,17.18,0,0,0,179,20.08a19.75,19.75,0,0,0-10.55-6.52q-4.68-1.31-14.77-1.31H142.1V31.5c4,1.66,8.65,3.51,14.05,5.45V25.65h3.63q4.83,0,7.2,2a6.88,6.88,0,0,1,2.37,5.5,7.37,7.37,0,0,1-2.49,5.87,7.51,7.51,0,0,1-1.61,1c3.75,1.24,7.78,2.49,12.06,3.74A17.68,17.68,0,0,0,181.17,39Z"/><path class="cls-5" d="M198.71,31.47v18q6.57,1.55,13.7,3v-21Z"/><path class="cls-6" d="M275.64,44.42A27.91,27.91,0,0,0,265,33.93a29,29,0,0,0-14.53-3.86,27.41,27.41,0,0,0-18.92,7.42,27.44,27.44,0,0,0-9.08,16.86Q229,55.52,236,56.56a15.21,15.21,0,0,1,4.11-9.15,15.11,15.11,0,0,1,21.37,0,15.81,15.81,0,0,1,4.2,11.41c0,.46,0,.9-.06,1.34q6.72.62,13.75,1.06c.06-.81.11-1.62.11-2.45A28.11,28.11,0,0,0,275.64,44.42Z"/><path class="cls-7" d="M311.22,53l-5-2.51a15.3,15.3,0,0,1-4.09-2.53,2.92,2.92,0,0,1,.47-4.47,5.94,5.94,0,0,1,3.62-1q4.21,0,9.38,5.12l8.48-8.48a22.12,22.12,0,0,0-18-9q-7.78,0-12.78,4.59a14.49,14.49,0,0,0-5,11.06q0,9.83,12.7,16.43,10.66.27,21.95.14a14.92,14.92,0,0,0-.87-1.36Q319.15,56.86,311.22,53Z"/><path class="cls-8" d="M359.35,43.27V31.47h-8.13V11.35h-13.7V31.47h-7v11.8h7V61.93q6.75-.24,13.7-.66v-18Z"/><path class="cls-9" d="M407,31.47v6a25.34,25.34,0,0,0-8-5.57,23.18,23.18,0,0,0-9.22-1.85,23.79,23.79,0,0,0-18.15,8.08q-7.47,8.07-7.47,20.72c0,.51,0,1,0,1.51q6.74-.54,13.64-1.24c0-.14,0-.27,0-.42A16.17,16.17,0,0,1,382,47.21a13.85,13.85,0,0,1,10.56-4.5,14.3,14.3,0,0,1,10.75,4.42,15,15,0,0,1,4,8.36q6.6-1,13.34-2.08V31.47Z"/><path class="cls-10" d="M452.4,42.06a9.29,9.29,0,0,1,4,1.21l4.27-11.8a12.91,12.91,0,0,0-5.57-1.4,12.21,12.21,0,0,0-6.93,2.11,14.75,14.75,0,0,0-5.07,6.17V31.47H431.32V51.56q7.28-1.32,14.69-2.83a12.4,12.4,0,0,1,1-2.75Q449.24,42.07,452.4,42.06Z"/><path class="cls-11" d="M492.88,32.4a22.15,22.15,0,0,0-10-2.33,18.14,18.14,0,0,0-12.77,4.59,14.52,14.52,0,0,0-4.94,9.92q16.22-3.73,33.11-8.39A21.72,21.72,0,0,0,492.88,32.4Z"/><path class="cls-12" d="M141.51,100.65h3.82a9,9,0,0,1,3.55.55,4.28,4.28,0,0,1,2,1.68,4.58,4.58,0,0,1,.72,2.52,4.52,4.52,0,0,1-.63,2.35,4.67,4.67,0,0,1-1.85,1.72,7.14,7.14,0,0,1,2.32,1.2,4.77,4.77,0,0,1,1.27,1.68,5,5,0,0,1,.46,2.13,5.24,5.24,0,0,1-1.71,4,6.43,6.43,0,0,1-4.58,1.61h-5.33Zm1.9,1.9v6.21h1.11a8.62,8.62,0,0,0,3-.38,3.13,3.13,0,0,0,1.51-1.19,3.1,3.1,0,0,0,.55-1.79,2.54,2.54,0,0,0-.93-2.09,4.65,4.65,0,0,0-3-.76Zm0,8.16v7.43h2.4a8.81,8.81,0,0,0,3.12-.41,3.55,3.55,0,0,0,1.59-1.3,3.41,3.41,0,0,0-.24-4.17A4.33,4.33,0,0,0,148,111a16.74,16.74,0,0,0-3.44-.24Z"/><path class="cls-12" d="M156.69,100.65h1.93V120h-1.93Z"/><path class="cls-12" d="M172.3,100.16a10.07,10.07,0,0,1,7.38,2.94,10.2,10.2,0,0,1-7.22,17.43,9.91,9.91,0,0,1-7.28-3,9.71,9.71,0,0,1-3-7.15,10.35,10.35,0,0,1,1.35-5.18,9.82,9.82,0,0,1,3.69-3.74A9.93,9.93,0,0,1,172.3,100.16Zm.09,1.89a8.27,8.27,0,0,0-7.09,4.14,8.43,8.43,0,0,0-1.09,4.23,8.16,8.16,0,0,0,8.18,8.22,8.31,8.31,0,0,0,4.18-1.09,7.77,7.77,0,0,0,3-3,8.36,8.36,0,0,0,1.08-4.22,8.15,8.15,0,0,0-1.08-4.17,7.92,7.92,0,0,0-3-3A8.15,8.15,0,0,0,172.39,102.05Z"/><path class="cls-12" d="M186.26,100.65h1.94V120h-1.94Z"/><path class="cls-12" d="M192.65,120V100.65h.42L206,115.51V100.65h1.91V120h-.43l-12.81-14.68V120Z"/><path class="cls-12" d="M212.61,100.65h9.72v1.9h-7.78v6.07h7.78v1.9h-7.78V120h-1.94Z"/><path class="cls-12" d="M234.94,100.16a10.07,10.07,0,0,1,7.37,2.94,10.2,10.2,0,0,1-7.22,17.43,9.93,9.93,0,0,1-7.28-3,9.71,9.71,0,0,1-3-7.15,10.36,10.36,0,0,1,1.36-5.18,10,10,0,0,1,8.74-5.09Zm.08,1.89a8,8,0,0,0-4.08,1.12,8.08,8.08,0,0,0-3,3,8.43,8.43,0,0,0-1.08,4.23,8.16,8.16,0,0,0,8.17,8.22,8.28,8.28,0,0,0,4.18-1.09,7.86,7.86,0,0,0,3-3,8.36,8.36,0,0,0,1.08-4.22,8.15,8.15,0,0,0-1.08-4.17,8.06,8.06,0,0,0-3-3A8.19,8.19,0,0,0,235,102.05Z"/><path class="cls-12" d="M249.27,100.65h3.87a24,24,0,0,1,4.37.26,5,5,0,0,1,2.81,1.7,4.84,4.84,0,0,1,1.08,3.2,5.26,5.26,0,0,1-.74,2.79,4.68,4.68,0,0,1-2.13,1.81,9.78,9.78,0,0,1-3.82.63l7,9h-2.4l-7-9h-1.1v9h-1.94Zm1.94,1.9v6.59l3.34,0a8.41,8.41,0,0,0,2.87-.37,3,3,0,0,0,1.46-1.18,3.36,3.36,0,0,0,.52-1.82,3.15,3.15,0,0,0-.53-1.77,2.92,2.92,0,0,0-1.39-1.14,8.38,8.38,0,0,0-2.85-.34Z"/><path class="cls-12" d="M264.67,120l2.78-19.39h.31l7.89,15.91,7.81-15.91h.31L286.56,120h-1.9l-1.92-13.87L275.88,120h-.49l-6.94-14-1.91,14Z"/><path class="cls-12" d="M298.29,100.65l9,19.39h-2.09l-3.05-6.38h-8.35l-3,6.38h-2.17l9.17-19.39Zm-.24,4.12-3.33,7h6.63Z"/><path class="cls-12" d="M308.42,102.55v-1.9H319v1.9h-4.32V120h-2V102.55Z"/><path class="cls-12" d="M321.56,100.65h1.94V120h-1.94Z"/><path class="cls-12" d="M346,104.25l-1.53,1.17a8.29,8.29,0,0,0-3-2.5,9,9,0,0,0-3.89-.85,8.54,8.54,0,0,0-4.3,1.12,8,8,0,0,0-3.07,3,8.31,8.31,0,0,0-1.08,4.22,7.93,7.93,0,0,0,2.43,5.92,8.41,8.41,0,0,0,6.14,2.38,8.65,8.65,0,0,0,6.81-3.19l1.53,1.16a9.74,9.74,0,0,1-3.62,2.85,11.36,11.36,0,0,1-4.84,1,10.07,10.07,0,0,1-8-3.39,10.25,10.25,0,0,1-2.47-6.91,9.6,9.6,0,0,1,3-7.16,10.28,10.28,0,0,1,7.48-2.91,11,11,0,0,1,4.91,1.08A9.51,9.51,0,0,1,346,104.25Z"/><path class="cls-12" d="M347.89,116.43l1.65-1c1.16,2.14,2.5,3.2,4,3.2a3.87,3.87,0,0,0,1.83-.45,3.2,3.2,0,0,0,1.3-1.22,3.15,3.15,0,0,0,.45-1.62,3.27,3.27,0,0,0-.66-1.91,15.53,15.53,0,0,0-3.32-3.11,17.64,17.64,0,0,1-3-2.65,4.91,4.91,0,0,1-1-3,4.58,4.58,0,0,1,.61-2.31,4.29,4.29,0,0,1,1.71-1.64,4.9,4.9,0,0,1,2.39-.6,5.11,5.11,0,0,1,2.56.68,8.79,8.79,0,0,1,2.53,2.5l-1.58,1.2a7.31,7.31,0,0,0-1.87-1.91,3.17,3.17,0,0,0-1.68-.46,2.65,2.65,0,0,0-1.92.71,2.34,2.34,0,0,0-.74,1.75,3.12,3.12,0,0,0,.26,1.23,4.85,4.85,0,0,0,1,1.29c.26.24,1.09.89,2.51,1.94a13.93,13.93,0,0,1,3.45,3.31,5.25,5.25,0,0,1,.94,2.91,4.94,4.94,0,0,1-1.6,3.66,5.39,5.39,0,0,1-3.9,1.56,5.69,5.69,0,0,1-3.2-.94A8.61,8.61,0,0,1,347.89,116.43Z"/><path class="cls-12" d="M370.83,100.65h11.11v1.9h-9.18v6.07h9.1v1.9h-9.1v7.62h9.1V120h-11Z"/><path class="cls-12" d="M384.27,100.65h2.26l4.65,7.55,4.67-7.55h2.23L392.3,110l6.17,10H396.2l-5-8.18L386.11,120h-2.26L390,110Z"/><path class="cls-12" d="M401.72,100.65h3.86a22.48,22.48,0,0,1,4.48.29,5,5,0,0,1,2.72,1.68,5.43,5.43,0,0,1,0,6.39,5,5,0,0,1-2.83,1.7A25.27,25.27,0,0,1,405,111h-1.39v9h-1.93Zm1.93,1.9v6.58l3.29,0a8.6,8.6,0,0,0,2.91-.37,3,3,0,0,0,1.45-1.17,3.25,3.25,0,0,0,.53-1.81,3.2,3.2,0,0,0-.53-1.78,2.89,2.89,0,0,0-1.39-1.15,8.36,8.36,0,0,0-2.83-.34Z"/><path class="cls-12" d="M417.71,100.65h1.94v17.52h7.46V120h-9.4Z"/><path class="cls-12" d="M438.1,100.65l9,19.39h-2.1L442,113.66h-8.35l-3,6.38h-2.16l9.16-19.39Zm-.24,4.12-3.32,7h6.63Z"/><path class="cls-12" d="M449.88,100.65h1.93V120h-1.93Z"/><path class="cls-12" d="M456.27,120V100.65h.42l12.91,14.86V100.65h1.91V120h-.44l-12.8-14.68V120Z"/><path class="cls-12" d="M476.24,100.65h11.12v1.9h-9.18v6.07h9.1v1.9h-9.1v7.62h9.1V120h-11Z"/><path class="cls-12" d="M490.71,120V100.65h4a20.36,20.36,0,0,1,6.31.7,8.44,8.44,0,0,1,4.41,3.43,10.38,10.38,0,0,1,1.59,5.81,10.21,10.21,0,0,1-1.26,5.13,8.16,8.16,0,0,1-3.27,3.27,12.35,12.35,0,0,1-5.63,1.05Zm1.85-1.83h2.25a21,21,0,0,0,5.57-.5,6.45,6.45,0,0,0,3.44-2.56,7.89,7.89,0,0,0,1.26-4.53,8.31,8.31,0,0,0-1.36-4.79,6.84,6.84,0,0,0-3.79-2.73,22.8,22.8,0,0,0-6-.55h-1.38Z"/><polygon class="cls-2" points="205.97 3.87 209.49 11.01 217.37 12.15 211.67 17.71 213.02 25.56 205.97 21.86 198.92 25.56 200.27 17.71 194.57 12.15 202.45 11.01 205.97 3.87"/><path class="cls-1" d="M62.44,2.87c.76-.21,1.78-.44,2.55-.63,1.32-.11,3.09-.12,4.42-.12-1-.07-2.24-.11-3.2-.15a2.76,2.76,0,0,0,.27-.08,28.29,28.29,0,0,0-3,.24c-.87.11-2,.4-2.87.6a.91.91,0,0,1,.15.21c-1,.4-2.26,1-3.21,1.47,1.08-.52,2.59-1,3.71-1.44Z"/><path class="cls-1" d="M60.36,2.73l1.09-.64a16.06,16.06,0,0,1,2.1-.26h-.67l-1.33,0h-.27l-.79,0a4,4,0,0,0-.74.24,9.33,9.33,0,0,0-1.44.65l.5.14c-.4.44-.91,1-1.3,1.47a14,14,0,0,1,1.85-1.49Z"/><path class="cls-1" d="M57.83,2.85a1.73,1.73,0,0,0-.6-.5l.14-.19-.47.06-.43,0-.38,0-.59.07-.88.12a5.57,5.57,0,0,1,.91.06,1.2,1.2,0,0,0,.28.55l.82,0a6.53,6.53,0,0,1,.88,1.25,12.8,12.8,0,0,1-.34-1.32A5.84,5.84,0,0,1,57.83,2.85Z"/><path class="cls-1" d="M55.37,3.2A18,18,0,0,0,53.17,3a15.81,15.81,0,0,0-1.69.08L51,3.16l-.09.08c-.83.15-1.92.41-2.74.6a33.3,33.3,0,0,1,3.45-.49,14.25,14.25,0,0,1,1.93.28l1.07-.08a25.79,25.79,0,0,1,2.88.86c-.71-.32-1.68-.69-2.4-1A2,2,0,0,1,55.37,3.2Z"/><path class="cls-1" d="M53.26,3.73c-1.07,0-2.49.12-3.55.2s-2.81.43-4,.67c.27,0,.65,0,.92-.06-1,.26-2.28.67-3.27,1,1.53-.41,3.61-.79,5.16-1.09,1-.12,2.35-.09,3.36-.12.35-.07.82-.15,1.17-.2,1.35,0,3.14.2,4.48.32-1.23-.19-2.87-.34-4.1-.48A.7.7,0,0,1,53.26,3.73Z"/><path class="cls-1" d="M51.62,4.42c-1.34.15-3.11.47-4.44.7-1.69.32-3.91.88-5.58,1.31l2.09-.35c-1,.36-2.31.89-3.3,1.29,1.83-.61,4.32-1.27,6.18-1.76,1.29-.28,3-.45,4.36-.62.33-.1.78-.21,1.11-.3,1.64-.16,3.83-.22,5.47-.28-1.59,0-3.7.07-5.29.13Z"/><path class="cls-1" d="M46.11,6.73c1.41-.42,3.34-.78,4.76-1.1.28-.13.65-.27.93-.37,1.7-.33,4-.62,5.71-.85-1.72.16-4,.48-5.72.71h-.93c-1.43.28-3.33.79-4.74,1.17-1.92.52-4.44,1.35-6.33,2,.86-.22,2-.48,2.88-.68-.89.42-2.05,1.07-2.93,1.54C41.62,8.34,44.18,7.42,46.11,6.73Z"/><path class="cls-1" d="M50.91,5.68c-1.37.4-3.15,1.06-4.49,1.55C44.5,7.93,42,9,40.11,9.77l3.27-1c-.72.48-1.61,1.19-2.3,1.72,1.72-.94,4.08-2.06,5.85-2.89,1.35-.55,3.22-1.05,4.6-1.5.19-.14.47-.3.67-.42,1.57-.46,3.71-.92,5.31-1.28-1.65.3-3.84.81-5.48,1.17Z"/><path class="cls-1" d="M51.76,6.19c-1.14.51-2.58,1.29-3.67,1.88-1.68.85-3.86,2.1-5.49,3,1-.39,2.32-.93,3.31-1.31a17.39,17.39,0,0,0-1.24,1.8c1.29-1,3.13-2.33,4.49-3.28C50.27,7.66,51.86,7,53,6.47A2.14,2.14,0,0,1,53.28,6c1.24-.57,2.95-1.16,4.23-1.63C56.13,4.83,54.32,5.49,53,6Z"/><path class="cls-1" d="M53.36,6.51a29.51,29.51,0,0,0-2.29,2c-1.2,1-2.74,2.35-3.89,3.38.88-.47,2-1.11,2.89-1.59a12.61,12.61,0,0,0,0,1.74c.7-1.08,1.73-2.43,2.5-3.45.69-.69,1.78-1.42,2.53-2a1.82,1.82,0,0,1-.14-.39c.72-.6,1.8-1.27,2.58-1.79-.93.5-2.13,1.24-3,1.77C54.15,6.29,53.7,6.41,53.36,6.51Z"/><path class="cls-1" d="M55.41,6.59a13,13,0,0,0-.73,2c-.57,1-1.3,2.41-1.84,3.45.63-.51,1.44-1.23,2.06-1.76A16.6,16.6,0,0,0,56,11.91c0-1,.19-2.36.29-3.38.21-.65.7-1.43,1-2a5.25,5.25,0,0,1-.49-.33,14.1,14.1,0,0,1,.76-1.74c-.37.53-.88,1.24-1.24,1.77C56,6.32,55.67,6.47,55.41,6.59Z"/><path class="cls-1" d="M57.65,6.43a17.23,17.23,0,0,0,1,1.86c.16,1,.33,2.31.46,3.3.33-.52.7-1.26,1-1.8.62.42,1.49.94,2.14,1.33l-2-3.07c-.25-.56-.5-1.34-.76-1.9-.25-.06-.57-.15-.82-.23-.34-.45-.78-1.06-1.11-1.51A11.73,11.73,0,0,1,58.15,6,5.15,5.15,0,0,1,57.65,6.43Z"/><path class="cls-1" d="M59.78,6.08c.74.48,1.76,1.08,2.53,1.54.85.83,1.89,2,2.68,2.93a11.28,11.28,0,0,0-.18-1.73c.89.32,2.07.71,3,1C66.58,9,64.94,8,63.71,7.25c-.69-.51-1.64-1.14-2.36-1.59l-1.06-.12c-.83-.35-1.94-.79-2.78-1.13.75.3,1.67.86,2.38,1.24A2.09,2.09,0,0,1,59.78,6.08Z"/><path class="cls-1" d="M61.5,5.6l3.75,1.14c1.4.65,3.19,1.67,4.53,2.43a15.66,15.66,0,0,0-1.24-1.58c1,.21,2.4.47,3.42.66-1.66-.64-3.92-1.41-5.61-2-1.08-.38-2.55-.84-3.65-1.17H61.54c-1.2-.24-2.82-.49-4-.68,1.13.17,2.61.55,3.72.81A2,2,0,0,1,61.5,5.6Z"/><path class="cls-1" d="M62.9,5l4.63.62c1.83.45,4.24,1.2,6,1.75-.68-.43-1.66-.9-2.38-1.27,1,.11,2.4.25,3.44.34-2-.45-4.61-.93-6.58-1.28-1.37-.26-3.21-.5-4.6-.68l-1.1.1c-1.45-.08-3.39-.1-4.84-.13,1.41,0,3.29.18,4.7.26Z"/><path class="cls-1" d="M63.5,4.33c1.47,0,3.42.09,4.89.14,2,.24,4.71.71,6.73,1.07-.94-.32-2.19-.67-3.14-.93l3.08.08c-2-.27-4.69-.48-6.71-.65-1.48-.12-3.44-.15-4.92-.18L62.5,4c-1.5.07-3.5.25-5,.37,1.5-.15,3.5-.18,5-.25C62.81,4.2,63.21,4.27,63.5,4.33Z"/><path class="cls-1" d="M63.36,3.78c1.37-.1,3.2-.2,4.57-.27,2,.06,4.63.29,6.6.47-1-.22-2.43-.43-3.47-.59l2.38-.12c-1.82-.11-4.25-.11-6.07-.11-1.4,0-3.26.15-4.66.25l-.66.23c-1.37.19-3.18.53-4.54.77,1.4-.27,3.29-.48,4.71-.68Z"/><path class="cls-1" d="M62.5,3.34c1.11-.2,2.58-.42,3.69-.59,1.7-.1,4-.07,5.66,0-1-.11-2.4-.2-3.44-.27l1.3-.19c-1.38,0-3.22.16-4.6.28l-2.64.34c-.4.08-.81.18-1.21.29-.07.07-.17.13-.24.19-1.06.28-2.46.74-3.51,1.06,1.12-.37,2.67-.71,3.82-1Z"/><polygon class="cls-1" points="40.97 6.23 40.62 6.38 41.24 6.13 40.97 6.23"/><path class="cls-1" d="M25.33,15.44l.05,0,0,0Z"/><path class="cls-1" d="M27.16,14.17c.89-.61,2.2-1.24,3.14-1.76.44-.39,1.05-.88,1.5-1.25,1.55-.89,3.69-1.95,5.29-2.75-1.35.56-3.11,1.39-4.43,2a4.39,4.39,0,0,1,.53-.41c-1.34.79-3.07,1.93-4.38,2.79l-.09.07c-1,.72-2.33,1.74-3.34,2.5s-2.18,1.93-3.12,2.75C23.68,16.9,25.67,15.34,27.16,14.17Z"/><path class="cls-1" d="M21.14,21.8c1.41-1.39,3.39-3.15,4.88-4.46a39.24,39.24,0,0,1,4-2.23,12.31,12.31,0,0,1,.53-1.25c1.51-1,3.62-2.31,5.2-3.26-1.59.73-3.66,1.8-5.22,2.6a3.61,3.61,0,0,1-.56-.27c-1.24.9-2.81,2.19-4,3.16-1.5,1.12-3.42,2.72-4.87,3.92.63-.37,1.49-.8,2.13-1.13C22.58,19.72,21.76,20.92,21.14,21.8Z"/><path class="cls-1" d="M30.19,15.34c-1,1-2.29,2.37-3.23,3.41-1.52,1.27-3.48,3-4.94,4.39.92-.45,2.16-1,3.08-1.46-.33.86-.66,2.06-.91,3,1.23-1.5,3-3.42,4.27-4.85a37.85,37.85,0,0,1,4.37-2.64c-.15-.33-.3-.81-.42-1.17,1.31-1.15,3.16-2.56,4.54-3.63-1.62.88-3.74,2.14-5.33,3.09C31.19,15.42,30.61,15.37,30.19,15.34Z"/><path class="cls-1" d="M36,17.37l-2.27.15c-.64,1-1.36,2.49-1.92,3.57-1.34,1.41-3.07,3.35-4.36,4.81L31.31,24c.13.88.45,2,.67,2.87.84-1.57,2.07-3.6,3-5.12a28.37,28.37,0,0,1,4.26-3.05c-.48-.28-1.1-.69-1.55-1,.87-1.22,2.18-2.77,3.16-3.91C39.39,14.85,37.48,16.29,36,17.37Z"/><path class="cls-1" d="M48.12,19.26c-.7-.2-1.63-.49-2.32-.71.32-1.22.9-2.8,1.33-4-1.07,1.15-2.49,2.7-3.55,3.87l-2.86.46c-.15,1.05-.2,2.48-.24,3.54-1,1.52-2.2,3.57-3.13,5.11,1.21-.68,2.81-1.61,4-2.3.59.81,1.46,1.82,2.09,2.59.33-1.58.87-3.64,1.27-5.19C45.44,21.41,47.1,20.28,48.12,19.26Z"/><path class="cls-1" d="M52.91,25.16c.92.7,2.18,1.58,3.13,2.24-.19-1.52-.4-3.56-.55-5.07.29-1.23,1.53-2.49,2.16-3.57l-2.76-.42c-.22-1.15-.42-2.69-.56-3.85-.54,1.21-1.3,2.8-1.86,4l-2.89.76c.33,1,.88,2.35,1.29,3.35-.46,1.55-1,3.64-1.5,5.19C50.44,27,51.85,26,52.91,25.16Z"/><path class="cls-1" d="M62.58,26.7c.82-.84,1.87-2,2.66-2.87,1.17.57,2.75,1.3,3.93,1.84-.71-1.44-1.68-3.36-2.4-4.78-.13-1.08.48-2.49.65-3.57-.88,0-2.06-.09-3-.13-.76-1.05-1.75-2.46-2.48-3.53.08,1.17.08,2.74.09,3.9l-2.64,1c.8.93,1.92,2.13,2.75,3C62.33,23.13,62.47,25.17,62.58,26.7Z"/><path class="cls-1" d="M72.87,19.62C73.59,21,74.45,23,75.1,24.44c.5-.88,1.09-2.08,1.54-3,1.29.44,3,1,4.33,1.41-1.18-1.32-2.81-3.05-4-4.34A20.74,20.74,0,0,1,76,15.11l-2.86.13C72,14.32,70.29,13.11,69,12.19c.68,1,1.44,2.52,2,3.63-.63.37-1.48.84-2.12,1.19C70.11,17.81,71.69,18.84,72.87,19.62Z"/><path class="cls-1" d="M78.17,13.56c-.41.41-1,.92-1.43,1.31L81.43,17c1.18,1.28,2.66,3.08,3.76,4.43.16-.89.25-2.09.32-3l4.22,1c-1.51-1.19-3.59-2.71-5.15-3.84-.82-.86-1.65-2.22-2.4-3.14-.71.11-1.66.24-2.36.33-1.58-.78-3.7-1.76-5.3-2.51C75.68,11.23,77.1,12.57,78.17,13.56Z"/><path class="cls-1" d="M89.42,12.27c-1.15-.77-2.61-1.91-3.75-2.7l-1.5.41C82.44,9.36,80.09,8.61,78.33,8c1.56.73,3.57,1.83,5.08,2.66A9.64,9.64,0,0,1,83.1,12c1.46.49,3.4,1.17,4.85,1.67,1.58,1.11,3.58,2.69,5.09,3.88-.34-.85-.91-1.93-1.32-2.74l3.45.76C93.48,14.51,91.17,13.22,89.42,12.27Z"/><path class="cls-1" d="M90.2,9.12c-1.36-.69-3.2-1.58-4.58-2.23a5.25,5.25,0,0,1-.53.4c-1.7-.47-4-1-5.71-1.41,1.76.55,4.07,1.42,5.79,2.06a12,12,0,0,1,.74,1.12c1.35.36,3.13.9,4.45,1.3,1.76.93,4,2.3,5.73,3.32-.75-.77-1.84-1.71-2.63-2.42.72.17,1.68.42,2.4.62C94.19,11,91.91,9.91,90.2,9.12Z"/><path class="cls-1" d="M85.31,6.52c1.09.26,2.52.7,3.58,1,1.75.77,4,1.94,5.72,2.81C93.55,9.69,92.09,8.9,91,8.29l.6.27-.1-.05-2.09-1-2.24-1c-1.44-.6-3.41-1.26-4.87-1.77a4.13,4.13,0,0,1,.46.31c-1.46-.35-3.45-.73-4.92-1,1.76.38,4.08,1,5.82,1.53C84.17,5.85,84.82,6.23,85.31,6.52Z"/><polygon class="cls-1" points="81.52 4.48 81.35 4.42 80.82 4.26 81.34 4.42 81.52 4.48"/><polygon class="cls-1" points="75.33 2.94 73.71 2.67 77.24 3.34 75.33 2.94"/><polygon class="cls-1" points="15.67 25.26 15.06 26.05 15.38 25.64 15.67 25.26"/><path class="cls-1" d="M8.87,38.76C9.72,37,11,34.63,12,32.89a26.69,26.69,0,0,1,3-3A17.34,17.34,0,0,1,15.05,28c1.07-1.53,2.62-3.49,3.78-4.95C17.65,24.19,16.16,25.78,15,27a1.18,1.18,0,0,1-.16-.49c-.94,1.33-2.08,3.19-3,4.58S9.74,34.7,8.84,36.29a18.25,18.25,0,0,1,1.23-1.41C9.64,36,9.21,37.59,8.87,38.76Z"/><path class="cls-1" d="M15.15,30.28c-.62,1.38-1.31,3.28-1.83,4.7-1,1.65-2.31,3.91-3.26,5.6.77-.54,1.82-1.22,2.6-1.73,0,1.14.23,2.66.35,3.79.7-1.85,1.74-4.28,2.53-6.11.87-1.23,2.63-2.36,3.77-3.36-.43-.49-.94-1.2-1.32-1.72.81-1.6,2-3.66,2.93-5.21-1.29,1.27-3,3-4.2,4.32C16.24,30.5,15.61,30.37,15.15,30.28Z"/><path class="cls-1" d="M29.46,35.67c-.91-.39-2.11-1-3-1.4.37-1.62,1-3.75,1.5-5.34-1.26,1.4-2.91,3.31-4.14,4.74-.91,0-2.12.06-3,.07-.15,1.41-.2,3.3-.24,4.71-1,1.75-2.14,4.14-3,5.93,1.16-.67,2.74-1.53,3.91-2.19.61,1.11,1.55,2.51,2.24,3.56.39-1.9,1-4.4,1.48-6.26C26.05,38,28.17,36.81,29.46,35.67Z"/><path class="cls-1" d="M39.54,35.6c-.11-1.57-.14-3.69-.15-5.27-1,1.53-2.41,3.57-3.43,5.1-1.25.17-2.91.38-4.15.52.38,1.38,1,3.18,1.51,4.53-.72,1.84-1.61,4.31-2.27,6.17l4.64-2.71c1.09,1,2.58,2.19,3.7,3.12,0-1.88.11-4.39.19-6.27.67-1.61,2.77-3,4-4.26C42.33,36.27,40.74,35.89,39.54,35.6Z"/><path class="cls-1" d="M48.7,40.7c-.36,1.88-.82,4.4-1.17,6.28,1.38-.94,3.19-2.22,4.56-3.18,1.37.82,3.21,1.86,4.58,2.64-.36-1.83-.78-4.3-1.11-6.14,1-1.35,2.21-3.18,3.14-4.55-1.35-.13-3.14-.33-4.48-.47-.55-1.51-1.2-3.54-1.69-5.07-.66,1.59-1.55,3.71-2.22,5.3-1.33.31-3.11.7-4.45,1C46.67,37.79,47.83,39.45,48.7,40.7Z"/><path class="cls-1" d="M65.66,45.48c1.21-1,2.78-2.49,4-3.56,1.53.66,3.57,1.51,5.1,2.15-.71-1.77-1.67-4.14-2.4-5.9.63-1.4,1.39-3.29,2-4.71-1.37,0-3.19,0-4.55,0-1-1.41-2.23-3.3-3.18-4.72-.18,1.61-.48,3.73-.71,5.33-1.28.43-3,1-4.3,1.41,1.17,1.16,2.77,2.66,4,3.79C65.57,41.11,65.62,43.61,65.66,45.48Z"/><path class="cls-1" d="M82.87,42.39c.93-1.13,2.1-2.68,3-3.83,1.52.51,3.56,1.17,5.1,1.67-1-1.68-2.42-3.9-3.48-5.56-.28-1.4.42-3.31.56-4.74-1.24.12-2.91.26-4.15.36-1.3-1.3-3-3-4.36-4.28.33,1.55.65,3.64.89,5.2-1.11.55-2.6,1.23-3.72,1.75,1.41,1,3.29,2.34,4.71,3.33C81.89,38.11,82.45,40.55,82.87,42.39Z"/><path class="cls-1" d="M103,35.57c-1.2-1.59-2.89-3.64-4.16-5.18a28.28,28.28,0,0,1-1-4.6c-1,.2-2.25.42-3.21.6-1.49-1.16-3.52-2.66-5-3.79.77,1.45,1.67,3.45,2.34,4.95-.82.62-2,1.41-2.82,2l5,2.86C95,34.15,96,36.5,96.78,38.27c.58-1.17,1.24-2.78,1.75-4Z"/><path class="cls-1" d="M99.37,24.91c1.37.72,3.18,1.73,4.54,2.47,1.17,1.61,2.61,3.81,3.69,5.47,0-1.15-.12-2.69-.22-3.83,1,.31,2.21.78,3.16,1.11-1.28-1.48-3.07-3.37-4.42-4.79-.89-1.21-1.8-3-2.61-4.26-.5.22-1.19.46-1.7.65-1.5-1-3.55-2.35-5.09-3.34,1.21,1.3,2.7,3.13,3.83,4.51C100.24,23.52,99.75,24.31,99.37,24.91Z"/><path class="cls-1" d="M103.91,20.28c1.11.63,2.54,1.54,3.62,2.22,1.35,1.47,3,3.53,4.29,5.07-.52-1.1-1.33-2.5-1.93-3.56.51.29,1.14.74,1.62,1.06-1.2-1.38-2.92-3.13-4.22-4.43-1.11-1.19-2.65-2.72-3.81-3.86a1.6,1.6,0,0,1-.15.57c-1.36-.94-3.22-2.09-4.63-3,1.48,1.15,3.35,2.8,4.76,4C103.64,19,103.79,19.72,103.91,20.28Z"/><polygon class="cls-1" points="104.41 17.35 101.71 15.08 102.99 16.19 104.41 17.35"/><path class="cls-1" d="M4.78,49.25a22.77,22.77,0,0,1,1.8-3.37,22.1,22.1,0,0,1-.22-2.3c.62-1.84,1.58-4.24,2.29-6C7.9,38.93,7,40.84,6.36,42.28l0-.38c-.5,1.36-1,3.22-1.48,4.59l-.16.57-.14.54-.37,1.5-.67,3.33.25-.92c-.15,1.32-.22,3.1-.29,4.43C3.83,53.92,4.37,51.25,4.78,49.25Z"/><path class="cls-1" d="M8.42,46.71c-.48-.11-1.1-.28-1.56-.4-.21,1.62-.35,3.79-.46,5.43C5.88,53.6,5.32,56.12,4.89,58c.56-.6,1.36-1.34,2-1.9.35,1.29,1,3,1.42,4.25.15-2,.51-4.76.76-6.79.53-1.32,2-2.61,2.92-3.72-.63-.58-1.39-1.43-2-2.05.33-1.86.92-4.31,1.36-6.15C10.41,43.14,9.27,45.18,8.42,46.71Z"/><path class="cls-1" d="M24.35,52.91c-1.2-.46-2.78-1.14-4-1.64-.06-1.85,0-4.31,0-6.16-1,1.61-2.29,3.79-3.25,5.43-1,0-2.38,0-3.4,0,.29,1.6.82,3.71,1.21,5.29-.53,1.93-1.13,4.53-1.57,6.48C14.47,61.6,15.92,60.68,17,60c1,1.21,2.35,2.74,3.38,3.9-.05-2,0-4.78,0-6.83C21.06,55.47,23.16,54.14,24.35,52.91Z"/><path class="cls-1" d="M36.5,52.92c-.46-1.8-1-4.2-1.36-6-.93,1.72-2.15,4-3,5.77-1.46.19-3.41.39-4.88.56.82,1.51,2,3.5,2.86,5-.43,2-.93,4.66-1.3,6.66,1.43-.86,3.33-2,4.75-2.89,1.41,1,3.31,2.36,4.74,3.35-.26-2-.54-4.73-.76-6.76L41.56,54C40,53.67,38,53.23,36.5,52.92Z"/><path class="cls-1" d="M54.59,52.51c-.78-1.71-1.76-4-2.5-5.74-.69,1.81-1.62,4.22-2.32,6-1.6.37-3.75.8-5.36,1.14,1.14,1.4,2.72,3.22,3.91,4.58-.26,2-.56,4.74-.79,6.78,1.51-1,3.51-2.41,5-3.44,1.61.86,3.78,2,5.4,2.83-.46-2-1.06-4.66-1.5-6.66,1.12-1.49,2.59-3.51,3.69-5C58.46,52.88,56.25,52.66,54.59,52.51Z"/><path class="cls-1" d="M73.72,50.23l-3.5-5.4c-.36,1.85-.89,4.3-1.29,6.15-1.59.51-3.72,1.16-5.32,1.65,1.38,1.25,3.25,2.9,4.65,4.13,0,2.05-.05,4.77-.08,6.82,1.43-1.16,3.3-2.73,4.71-3.91,1.68.7,3.93,1.61,5.62,2.3C77.87,60,77,57.45,76.34,55.5c.88-1.57,2-3.7,2.87-5.29C77.57,50.23,75.37,50.23,73.72,50.23Z"/><path class="cls-1" d="M87.8,60.05c1.21-1.26,2.77-3,3.94-4.29,1.58.56,3.7,1.28,5.28,1.83-.77-1.89-1.87-4.38-2.7-6.24-.06-1.73,1.26-3.83,1.77-5.47-1.47.16-3.43.34-4.9.48-1.25-1.51-2.92-3.51-4.18-5,0,1.85-.05,4.3-.1,6.15-1.41.65-3.31,1.47-4.74,2.09l5,3.69C87.36,55.31,87.61,58,87.8,60.05Z"/><path class="cls-1" d="M103.67,55.36c.87-1.34,2-3.19,2.79-4.57l4.34,1.49c-.83-1.84-2-4.22-2.94-6-.31-1.62.24-3.83.3-5.48-1.09.25-2.55.54-3.63.77-1.31-1.42-3.08-3.25-4.42-4.63.4,1.81.79,4.24,1.09,6-1.1.76-2.61,1.71-3.74,2.43,1.45,1,3.37,2.28,4.82,3.27C102.75,50.67,103.27,53.34,103.67,55.36Z"/><path class="cls-1" d="M116,49.17c.3-1.33.55-3.15.76-4.5.8.4,1.83,1,2.6,1.4-.79-1.77-2-4.07-2.89-5.8-.56-1.53-1-3.68-1.41-5.25-.51.26-1.21.55-1.73.78-1.17-1.34-2.82-3-4-4.31.82,1.68,1.77,4,2.5,5.75-.5.76-1.25,1.74-1.79,2.47,1.18.87,2.7,2.08,3.86,3C114.57,44.62,115.39,47.22,116,49.17Z"/><path class="cls-1" d="M115.37,31.7a18.15,18.15,0,0,1,.19,2.33c.82.82,1.83,2,2.59,2.86.87,1.85,1.9,4.36,2.68,6.25-.29-1.31-.79-3-1.16-4.29a8.9,8.9,0,0,1,.71,1.19l-.77-1.83-1.73-3.53-2-3.64-.76-1.22a2.08,2.08,0,0,1,.13.56c-1-1.27-2.33-2.87-3.35-4.07C113,27.88,114.34,30.06,115.37,31.7Z"/><path class="cls-1" d="M2.8,61.25c.07-2,.32-4.69.5-6.69l-.39,3-.11,1.5a47.57,47.57,0,0,0,.07,7.78H3c0-1,.23-2.16.36-3.07A24.07,24.07,0,0,1,2.8,61.25Z"/><path class="cls-1" d="M3,69.38l.29,2.35.51,2.7c-.35-2.09-.65-4.9-.88-7,0-.18,0-.4,0-.59H2.87C2.92,67.58,3,68.39,3,69.38Z"/><path class="cls-1" d="M6.34,59.23C5.88,60.84,5.41,63,5,64.68c-.42-.11-1-.3-1.39-.45.11.79.26,1.7.43,2.61H7.79l-1-1C6.55,63.89,6.43,61.22,6.34,59.23Z"/><path class="cls-1" d="M4.68,70.07c.08,2,.35,4.55.55,6.49.26-.59.7-1.34,1-1.9.67,1.33,1.69,3,2.44,4.31-.44-2.07-.88-4.86-1.22-7,.14-1.27,1.19-2.75,1.74-3.91-.44-.36-.93-.81-1.42-1.26H4.08C4.28,68,4.49,69.1,4.68,70.07Z"/><path class="cls-1" d="M14.64,68.9c-1,0-2.41,0-3.45,0,.72,1.7,1.8,3.91,2.6,5.58,0,2,.1,4.6.18,6.56.86-.71,2-1.61,2.92-2.29,1.25,1.21,3,2.75,4.29,3.9-.53-2-1.12-4.8-1.55-6.87.91-1.31,2.19-3,3.15-4.3-1.39-.49-3.2-1.21-4.56-1.75-.24-.85-.48-1.84-.71-2.85H15.34Z"/><path class="cls-1" d="M15.34,66.84h2.17c-.31-1.28-.6-2.57-.85-3.68C16.24,64.26,15.79,65.56,15.34,66.84Z"/><path class="cls-1" d="M31.08,71.28c-1.55.18-3.61.39-5.16.54,1.16,1.58,2.79,3.64,4,5.18-.09,2-.12,4.66-.13,6.66,1.32-.84,3.07-2,4.38-2.83,1.59,1,3.77,2.33,5.39,3.31-.56-2-1.23-4.72-1.73-6.75,1.13-1.45,2.64-3.36,3.77-4.8-1.71-.3-4-.75-5.69-1.08-.58-1.39-1.24-3.09-1.86-4.67H32.79C32.2,68.34,31.59,69.94,31.08,71.28Z"/><path class="cls-1" d="M32.79,66.84h1.27l-.63-1.62C33.23,65.7,33,66.3,32.79,66.84Z"/><path class="cls-1" d="M52.1,66.84h1.54l-.91-1.79C52.54,65.59,52.32,66.23,52.1,66.84Z"/><path class="cls-1" d="M50.53,71.37l-5.81,1.19C46.1,74,48,75.88,49.38,77.28c-.1,2-.2,4.75-.27,6.76,1.5-1,3.49-2.36,5-3.38,1.71.85,4,1.93,5.73,2.75-.54-2-1.25-4.66-1.78-6.65,1.17-1.56,2.72-3.64,3.88-5.21-1.83-.13-4.27-.34-6.1-.49-.67-1.26-1.44-2.78-2.19-4.22H52.1Z"/><path class="cls-1" d="M71.61,69.36c-1.75.55-4.09,1.25-5.86,1.77,1.47,1.29,3.43,3,4.91,4.28-.07,2.06-.19,4.81-.28,6.87,1.52-1.15,3.53-2.73,5-3.91L81,80.63c-.5-2-1.21-4.59-1.73-6.56,1.08-1.66,2.48-3.92,3.54-5.6-1.78,0-4.15.06-5.94.07l-1-1.7H72.3C72.07,67.72,71.82,68.61,71.61,69.36Z"/><path class="cls-1" d="M72.3,66.84h3.55l-2.47-4C73.07,64,72.68,65.45,72.3,66.84Z"/><path class="cls-1" d="M86.07,67.81c1.43,1.15,3.32,2.71,4.74,3.88,0,2.08-.13,4.87-.21,7,1.39-1.29,3.21-3,4.57-4.37l4.94,1.84c-.44-2-1.11-4.55-1.6-6.49a7.86,7.86,0,0,1,1.06-2.78H88.36Z"/><path class="cls-1" d="M96.13,64.28c-1.06-1.64-2.52-3.79-3.61-5.41-.29,2-.76,4.67-1.11,6.67l-3,1.3H99.57c.6-1.08,1.31-2.16,1.75-3.11C99.76,63.91,97.69,64.12,96.13,64.28Z"/><path class="cls-1" d="M114.57,58.16c-1.13.27-2.62.57-3.74.82-1-1.57-2.34-3.61-3.37-5.15,0,2-.18,4.72-.29,6.73-1.28.83-3,1.87-4.34,2.66,1.28,1,2.93,2.48,4.17,3.54v.08h6.55c-.2-.92-.4-1.85-.58-2.65C113,62.32,114.11,60,114.57,58.16Z"/><path class="cls-1" d="M107,73.8c1.12-1.39,2.56-3.31,3.64-4.74,1.12.45,2.6,1.09,3.72,1.56-.21-1.14-.48-2.47-.77-3.78H107C107.05,68.94,107,71.71,107,73.8Z"/><path class="cls-1" d="M123.14,64.22c-.2-1.95-.64-4.51-1-6.44-.13-1.78,0-4.17-.05-6-.47.27-1.11.57-1.6.8-.72-1.54-1.8-3.53-2.61-5,.35,2,.66,4.62.9,6.61-.63.86-1.57,1.93-2.27,2.75.9,1,2,2.37,2.82,3.41.15,1.93.23,4.42.29,6.46h.24c.52-1.34,1.08-2.94,1.5-4.2C122,63.07,122.64,63.74,123.14,64.22Z"/><path class="cls-1" d="M119.68,67.43l.22-.59h-.24C119.66,67,119.67,67.25,119.68,67.43Z"/><polygon class="cls-2" points="5.25 80.42 6.58 84.39 5.9 82.1 5.25 80.42"/><path class="cls-2" d="M11.36,89.83a11.13,11.13,0,0,1,.35-3.43c-.85-.6-1.92-1.48-2.72-2.14-.75-1.91-1.61-4.5-2.27-6.45.09,1.58.36,3.69.56,5.26a8.08,8.08,0,0,1-1.07-.51c.66,1.65,1.68,3.78,2.44,5.39s1.71,3.9,2.49,5.54a7.43,7.43,0,0,1,0-1.49c.9,1.15,2.21,2.63,3.17,3.75C13.4,94,12.23,91.62,11.36,89.83Z"/><path class="cls-2" d="M20.4,88.06c-1-1.83-2.17-4.33-3.06-6.2-.22,1.62-.38,3.79-.5,5.41-1,0-2.22-.08-3.17-.12,1.08,1.54,2.64,3.53,3.79,5,.48,1.66,1.25,3.84,1.82,5.46.58-.56,1.39-1.25,2-1.79,1.39,1,3.3,2.32,4.73,3.3-.92-1.69-2.05-4-2.9-5.72.57-1.14,1.42-2.61,2-3.71C23.71,89.25,21.82,88.57,20.4,88.06Z"/><path class="cls-2" d="M38,89.86C37,88.13,35.61,85.75,34.59,84c-.44,1.69-1,4-1.38,5.66-1.48.15-3.47.33-4.95.45,1.4,1.4,3.34,3.2,4.78,4.56.25,1.65.68,3.83,1,5.47l3.63-2.26c1.63.84,3.84,1.91,5.49,2.71-.78-1.65-1.74-3.88-2.46-5.56l3.12-4.16C42.08,90.59,39.77,90.17,38,89.86Z"/><path class="cls-2" d="M57.9,89.42c-1-1.67-2.41-3.93-3.44-5.62-.56,1.77-1.31,4.15-1.87,5.94-1.7.34-4,.76-5.69,1.08,1.47,1.25,3.46,2.88,5,4.1,0,1.66.14,3.89.21,5.57,1.35-.84,3.15-1.95,4.49-2.8,1.65.68,3.86,1.55,5.51,2.21-.56-1.64-1.28-3.84-1.83-5.48C61.37,93,62.85,91.19,64,89.81,62.15,89.72,59.72,89.54,57.9,89.42Z"/><path class="cls-2" d="M78.89,86.92l-3.15-5.41c-.61,1.88-1.47,4.36-2.12,6.23-1.74.51-4.1,1.17-5.86,1.67,1.39,1.12,3.27,2.59,4.68,3.7-.15,1.72-.37,4-.53,5.73,1.47-1,3.43-2.32,4.89-3.32l5,1.78c-.29-1.65-.73-3.85-1-5.48,1.19-1.5,2.75-3.53,3.92-5C83,86.83,80.63,86.88,78.89,86.92Z"/><path class="cls-2" d="M95.46,77.43c-.58,2-1.44,4.54-2.08,6.48-1.62.68-3.81,1.55-5.45,2.19l4,3.41c-.31,1.79-.79,4.16-1.15,5.94,1.45-1.13,3.36-2.67,4.78-3.81l4.1,1.44c0-1.67-.17-3.89-.28-5.55.54-1.91,2.59-3.83,3.68-5.47-1.49.19-3.49.42-5,.6C97.33,81.08,96.26,79,95.46,77.43Z"/><path class="cls-2" d="M110.24,86.69c.82.35,1.9.88,2.7,1.27.21-1.7.35-4,.45-5.71.53-1.84,2-4,2.83-5.72-1,.26-2.43.6-3.46.84-.51-1.56-1.31-3.61-1.89-5.15-.47,2-1.21,4.72-1.77,6.73-1.34.81-3.16,1.83-4.53,2.6.94.94,2.14,2.23,3.05,3.2-.41,1.87-1.06,4.33-1.54,6.18C107.35,89.68,109,88,110.24,86.69Z"/><path class="cls-1" d="M121.53,66.84h.3c-.06-.34-.12-.72-.17-1C121.62,66.12,121.57,66.5,121.53,66.84Z"/><path class="cls-2" d="M120.74,72.61c-.72.86-1.76,1.93-2.54,2.74.48.94,1,2.23,1.39,3.21-.42,1.94-1.12,4.5-1.63,6.41.81-1.29,1.81-3.06,2.55-4.38a9.51,9.51,0,0,1,.7,1.39c.41-1.77.8-4.14,1.1-5.93s1-4.06,1.42-5.81c-.35.26-.89.56-1.28.79-.12-1.26-.38-2.8-.62-4.19h-.3C121.32,68.72,121,70.89,120.74,72.61Z"/><path class="cls-2" d="M124.09,72.33c.24-1.63.43-3.8.59-5.49h0c-.08.73-.26,1.62-.39,2.31C124.29,70.11,124.17,71.38,124.09,72.33Z"/><path class="cls-1" d="M124.71,66.66a1.49,1.49,0,0,0,0,.18h0A1.35,1.35,0,0,1,124.71,66.66Z"/><path class="cls-2" d="M24.37,109c-1.37-1.3-3.11-3.14-4.4-4.53a10.91,10.91,0,0,1-1-2.65c-.84-.5-1.9-1.27-2.71-1.82-1.19-1.57-2.65-3.75-3.76-5.37.6,1.32,1.53,3,2.23,4.3a4.57,4.57,0,0,1-.69-.54l0,0c1,1.36,2.44,3.09,3.51,4.39l2.73,3L21.47,107a9.16,9.16,0,0,1-.67-.87C21.84,107,23.29,108.17,24.37,109Z"/><path class="cls-2" d="M22.43,98.44c.21,1.31.63,3,.94,4.31l-2.61-.21c1.33,1.24,3.16,2.82,4.53,4,.9,1.27,2.22,2.87,3.2,4.08a11.91,11.91,0,0,1,.93-1.22c1.39.77,3.29,1.75,4.7,2.49-1.21-1.24-2.75-3-3.91-4.26.19-.84.58-2,.85-2.79-1.35-.38-3.13-1-4.47-1.38C25.29,102,23.65,100,22.43,98.44Z"/><path class="cls-2" d="M38.52,100.41c-.16,1.34-.28,3.13-.38,4.47-1.28.11-3,.21-4.28.3,1.49,1.09,3.52,2.48,5,3.52.53,1.23,1.35,2.82,2,4l2.57-1.59c1.51.62,3.54,1.38,5.07,2-.91-1.19-2.06-2.82-2.92-4,.65-1,1.56-2.22,2.23-3.17-1.6-.2-3.72-.53-5.31-.77C41.28,103.71,39.7,101.83,38.52,100.41Z"/><path class="cls-2" d="M60.43,104.69c-1-1.32-2.37-3.1-3.38-4.43-.43,1.41-1,3.29-1.41,4.71-1.51.28-3.54.62-5,.87,1.42,1,3.32,2.18,4.75,3.11.16,1.22.44,2.84.65,4.07l3.62-2c1.42.48,3.33,1.08,4.76,1.55-.52-1.21-1.19-2.82-1.7-4l3.24-3.57C64.27,104.88,62.08,104.77,60.43,104.69Z"/><path class="cls-2" d="M72.64,111.64l4.3-2.51,4,1.22c-.08-1.24-.23-2.88-.35-4.11,1.19-1.2,2.75-2.82,3.93-4-1.56.08-3.62.17-5.17.23-.73-1.3-1.73-3-2.48-4.31-.67,1.52-1.59,3.53-2.27,5-1.59.43-3.73,1-5.32,1.4l4,2.8C73.13,108.65,72.85,110.36,72.64,111.64Z"/><path class="cls-2" d="M90.39,104.22c-.53,1.38-1.31,3.2-1.89,4.57,1.37-.88,3.16-2.08,4.52-3,.88.29,2.06.69,2.94,1,.35-1.28.7-3,1-4.32.85-1.63,2.91-3.15,4.14-4.51-1.3.2-3,.44-4.32.61-.38-1.29-1-3-1.4-4.27-.83,1.65-2,3.8-2.85,5.42-1.5.58-3.53,1.32-5,1.87C88.34,102.37,89.51,103.43,90.39,104.22Z"/><path class="cls-2" d="M104.12,100.06c-.79,1.51-1.92,3.46-2.78,4.93,1.3-1,3-2.39,4.25-3.43.47.25,1.08.64,1.53.94.69-1.36,1.47-3.23,2-4.63,1-1.57,2.61-3.4,3.71-4.87-.86.26-2,.57-2.88.81,0-1.31-.16-3-.27-4.35-.86,1.76-2.1,4.05-3,5.76-1.27.72-3,1.63-4.29,2.3C103,98.25,103.62,99.28,104.12,100.06Z"/><path class="cls-2" d="M117.22,89.51c-.73.77-1.77,1.71-2.56,2.43a22.38,22.38,0,0,1-.06,2.71c-.92,1.63-2.26,3.74-3.26,5.33,1-1.06,2.15-2.54,3.06-3.65a5.91,5.91,0,0,1-.33,1.14c.94-1.47,2.07-3.5,2.91-5s1.89-3.56,2.68-5.1a8.84,8.84,0,0,1-.88.74c.38-1.37.75-3.23,1-4.61C119.1,85.31,118,87.71,117.22,89.51Z"/><path class="cls-2" d="M32.33,115.25l.4.23-.57-.35A1.77,1.77,0,0,1,32.33,115.25Z"/><path class="cls-2" d="M27.7,112.12c-1.49-1.14-3.42-2.77-4.86-4,.76.76,1.86,1.68,2.66,2.39a54.19,54.19,0,0,0,6.66,4.62c-.66-.45-1.41-1.11-2-1.6S28.44,112.56,27.7,112.12Z"/><path class="cls-2" d="M33.36,115.87l1.69.94-2.32-1.33Z"/><path class="cls-2" d="M44.78,120.22c-1.4-.72-3.23-1.77-4.59-2.56-.35-.41-.32-1.22-.41-1.76-1.15-.28-2.66-.7-3.81-1-1.49-1-3.41-2.49-4.84-3.58.6,1,1.56,2.13,2.26,3-.55-.06-1.28-.16-1.83-.24,1.43.87,3.39,1.94,4.85,2.75,1.26.81,3,1.77,4.33,2.49a1.64,1.64,0,0,1-.23-.64C41.78,119.17,43.5,119.77,44.78,120.22Z"/><path class="cls-2" d="M46.86,118.48c.79.76,1.93,1.67,2.78,2.34.38-.28.9-.6,1.29-.86,1.26.37,3,.79,4.22,1.13-1-.67-2.22-1.63-3.14-2.34.3-.64.79-1.42,1.14-2-1.31-.13-3.07-.36-4.38-.53-1.27-.94-2.92-2.25-4.16-3.24.13.94.43,2.17.66,3.08l-3.26.15C43.45,116.9,45.4,117.81,46.86,118.48Z"/><path class="cls-2" d="M63.18,115.88c-.91-.9-2.11-2.14-3-3.06-.27,1-.58,2.3-.83,3.28-1.18.2-2.77.43-4,.6,1.23.62,2.88,1.38,4.12,2,.27.72.71,1.66,1,2.37L63,119.87c1.09.26,2.54.57,3.62.81-.45-.69-1-1.63-1.44-2.34.73-.71,1.73-1.65,2.47-2.36C66.28,116,64.51,115.92,63.18,115.88Z"/><path class="cls-2" d="M72.55,120c1-.45,2.33-1.08,3.33-1.56l2.7.64c.16-.75.29-1.76.38-2.52,1.08-.82,2.49-2,3.56-2.79l-4.06.26c-.46-.92-1.13-2.13-1.62-3-.65,1.11-1.55,2.55-2.21,3.63-1.28.32-3,.73-4.3,1l3,1.78C73.12,118.25,72.79,119.28,72.55,120Z"/><path class="cls-2" d="M87.87,116l1.54.55c.69-.81,1.5-2,2.1-2.84a45.43,45.43,0,0,1,4.21-3.31c-1,.19-2.29.4-3.28.56,0-.94-.06-2.19-.13-3.13-1,1.23-2.29,2.84-3.3,4-1.24.44-2.92,1-4.19,1.43.52.5,1.18,1.21,1.66,1.73-.7.91-1.71,2.08-2.47,3C85.18,117.42,86.72,116.62,87.87,116Z"/><path class="cls-2" d="M105.19,106.44c-.6.23-1.44.47-2,.67.46-1,.92-2.34,1.27-3.35-1.14,1.38-2.73,3.17-3.93,4.51-1.09.55-2.57,1.26-3.67,1.79a11.56,11.56,0,0,1,.25,1.78c-1.08,1.07-2.61,2.41-3.76,3.41,1.21-.69,2.79-1.67,4-2.4a1.49,1.49,0,0,1,.22.6c1.09-.92,2.45-2.28,3.47-3.29C102.21,109,103.93,107.56,105.19,106.44Z"/><path class="cls-2" d="M109,103.65c-.68.61-1.63,1.37-2.35,1.94a23,23,0,0,1-1.47,2.08c-1.32,1.24-3.19,2.79-4.6,4l1.17-.91c1.14-.91,2.58-2.19,3.68-3.16,1.59-1.47,3.52-3.62,5-5.21l-.15.15c.86-1.09,1.9-2.64,2.67-3.78C111.77,100.24,110.17,102.19,109,103.65Z"/><path class="cls-2" d="M47.8,121.72c-1.58-.52-3.63-1.32-5.17-1.92,1,.53,2.4,1.1,3.45,1.53l-.47-.12a61.07,61.07,0,0,0,6.66,1.67,12.13,12.13,0,0,1-1.66-.59C49.76,122.14,48.63,121.9,47.8,121.72Z"/><path class="cls-2" d="M52.29,122.88l.2.05-.22-.05Z"/><path class="cls-2" d="M59.4,122.84c-.92,0-2.15-.16-3.06-.24-1.23-.43-2.81-1.11-4-1.62a12.44,12.44,0,0,0,1.67,1.5H52.07c1.27.31,3,.65,4.26.91l2.31.37.54,0,.42,0v0c.85.07,2,.11,2.83.17h.12c-.94-.06-2.17-.27-3.09-.43A1.64,1.64,0,0,1,59.4,122.84Z"/><path class="cls-2" d="M66,122.39c-.74-.42-1.7-1-2.42-1.49a13,13,0,0,0-.15,1.65l-2.54.27c.94.24,2.21.49,3.16.69a5.92,5.92,0,0,0,1.37.44c.3,0,.69-.13,1-.19.64,0,1.51,0,2.15,0a4.8,4.8,0,0,1-1.07-.46c.45-.28,1-.66,1.47-1C68.05,122.39,66.85,122.39,66,122.39Z"/><path class="cls-2" d="M76.2,121.18a16,16,0,0,0-.62-1.57c-.56.61-1.35,1.39-2,2l-2.9.59,1.74.62a5.37,5.37,0,0,1-.84.65c.63-.12,1.45-.31,2.07-.45l1.08,0a5.36,5.36,0,0,0,1.13-.71c.82-.48,2-.92,2.88-1.32C78,121,77,121.12,76.2,121.18Z"/><path class="cls-2" d="M85.59,119.12a13.27,13.27,0,0,0,1.18-1.8c-1,.75-2.43,1.7-3.49,2.41l-3,.88a2,2,0,0,1,.19.69c-.84.39-2,.79-2.9,1.09.89-.22,2-.56,2.91-.81l0,0,.72-.21c.72-.22,1.63-.64,2.33-.93,1.19-.49,2.76-1.24,3.94-1.8Z"/><path class="cls-2" d="M91,117.31c-.81.35-1.91.8-2.74,1.14a8.63,8.63,0,0,1-1.25.9l-1.59.65,1-.37a63.84,63.84,0,0,0,7.42-3.55c-.3.14-.7.33-1,.45.87-.59,2-1.49,2.75-2.17C94.21,115.29,92.37,116.44,91,117.31Z"/><polygon class="cls-2" points="67.02 123.89 67.34 123.87 66.95 123.88 67.02 123.89"/><polygon class="cls-2" points="73.13 123.25 73.17 123.24 73.22 123.22 72.82 123.3 73.13 123.25"/></svg>